<?xml version="1.0" encoding="UTF-8"?>
<svg width="16px" height="16px" viewBox="0 0 16 16" version="1.1" xmlns="http://www.w3.org/2000/svg" xmlns:xlink="http://www.w3.org/1999/xlink">
    <title>222扫一扫、扫描</title>
    <g id="数字卷宗" stroke="none" stroke-width="1" fill="none" fill-rule="evenodd">
        <g id="222扫一扫、扫描" fill="#4497F2" fill-rule="nonzero">
            <rect id="矩形" opacity="0" x="0" y="0" width="16" height="16"></rect>
            <path d="M14.4953125,7.5046875 L1.503125,7.5046875 C1.228125,7.5046875 1.003125,7.7296875 1.003125,8.0015625 C1.003125,8.2765625 1.228125,8.4984375 1.503125,8.4984375 L14.496875,8.4984375 C14.771875,8.4984375 14.996875,8.2734375 14.996875,8.0015625 C14.9953125,7.725 14.7703125,7.5046875 14.4953125,7.5046875 Z M13.996875,9.9921875 C13.721875,9.9921875 13.496875,10.2140625 13.496875,10.4890625 L13.496875,12.9765625 C13.496875,13.2515625 13.271875,13.4734375 12.996875,13.4734375 L9.9984375,13.4734375 C9.7234375,13.4734375 9.4984375,13.6984375 9.4984375,13.9703125 C9.4984375,14.2453125 9.7234375,14.4671875 9.9984375,14.4671875 L12.996875,14.4671875 C13.8234375,14.4671875 14.4953125,13.7984375 14.4953125,12.975 L14.4953125,10.484375 C14.4953125,10.2125 14.271875,9.9921875 13.996875,9.9921875 L13.996875,9.9921875 Z M5.5,13.4734375 L3.0015625,13.4734375 C2.7265625,13.4734375 2.5015625,13.2484375 2.5015625,12.9765625 L2.5015625,10.4875 C2.5015625,10.2125 2.2765625,9.990625 2.0015625,9.990625 C1.7265625,9.990625 1.5015625,10.2125 1.5015625,10.4875 L1.5015625,12.975 C1.5015625,13.7984375 2.1734375,14.4671875 3,14.4671875 L5.4984375,14.4671875 C5.7734375,14.4671875 5.99844565,14.2421875 5.99844565,13.9703125 C6,13.6953125 5.7765625,13.4734375 5.5,13.4734375 L5.5,13.4734375 Z M2.0015625,6.009375 C2.2765625,6.009375 2.5015625,5.784375 2.5015625,5.5125 L2.5015625,3.025 C2.5015625,2.75 2.7265625,2.528125 3.0015625,2.528125 L5.5,2.528125 C5.775,2.528125 6,2.303125 6,2.03125 C6,1.75625 5.775,1.534375 5.5,1.534375 L3.0015625,1.534375 C2.175,1.534375 1.503125,2.203125 1.503125,3.0265625 L1.503125,5.5171875 C1.503125,5.7890625 1.7265625,6.009375 2.0015625,6.009375 Z M9.99842941,2.5296875 L12.996875,2.5296875 C13.271875,2.5296875 13.496875,2.7546875 13.496875,3.0265625 L13.496875,5.5140625 C13.496875,5.7890625 13.721875,6.0109375 13.996875,6.0109375 C14.271875,6.0109375 14.496875,5.7859375 14.496875,5.5140625 L14.496875,3.025 C14.496875,2.2015625 13.825,1.5328125 12.9984294,1.5328125 L9.99842941,1.5328125 C9.7234375,1.5328125 9.49842941,1.7578125 9.49842941,2.0296875 C9.496875,2.30625 9.721875,2.5296875 9.99842941,2.5296875 Z" id="形状"></path>
        </g>
    </g>
</svg>