<?xml version="1.0" encoding="UTF-8"?>
<svg width="16px" height="16px" viewBox="0 0 16 16" version="1.1" xmlns="http://www.w3.org/2000/svg" xmlns:xlink="http://www.w3.org/1999/xlink">
    <title>框选</title>
    <g id="辅助办案" stroke="none" stroke-width="1" fill="none" fill-rule="evenodd">
        <g id="阅卷笔录-大纲" transform="translate(-858, -115)" fill-rule="nonzero">
            <g id="编组-23" transform="translate(20, 70)">
                <g id="编组-14" transform="translate(0, 33)">
                    <g id="编组-2" transform="translate(730, 12)">
                        <g id="框选" transform="translate(108, 0)">
                            <rect id="矩形" fill="#000000" opacity="0" x="0" y="0" width="16" height="16"></rect>
                            <path d="M6.023125,14.103125 L7.3315625,14.103125 L7.3315625,14.7502187 L6.023125,14.7502187 L6.023125,14.103125 Z M3.40621875,14.103125 L4.71465625,14.103125 L4.71465625,14.7502187 L3.40621875,14.7502187 L3.40621875,14.103125 Z M1.77421875,13.7795469 L1.12710938,13.7795469 L1.12710938,14.7502031 L2.09778125,14.7502031 L2.09778125,14.103125 L1.77421875,14.103125 L1.77421875,13.7795469 Z M1.12710938,8.544 L1.77421875,8.544 L1.77421875,9.8524375 L1.12710938,9.8524375 L1.12710938,8.544 Z M1.12710938,3.31021875 L1.77421875,3.31021875 L1.77421875,4.61865625 L1.12710938,4.61865625 L1.12710938,3.31021875 Z M1.12710938,11.1626719 L1.77421875,11.1626719 L1.77421875,12.4711094 L1.12710938,12.4711094 L1.12710938,11.1626719 Z M1.12710938,5.92710938 L1.77421875,5.92710938 L1.77421875,7.23554688 L1.12710938,7.23554688 L1.12710938,5.92710938 Z M1.12710938,2.00178125 L1.77421875,2.00178125 L1.77421875,1.67821875 L2.09778125,1.67821875 L2.09778125,1.03110937 L1.12710938,1.03110937 L1.12710938,2.00178125 Z M8.64178125,1.03109375 L9.95021875,1.03109375 L9.95021875,1.67820313 L8.64178125,1.67820313 L8.64178125,1.03109375 Z M11.2586562,1.03109375 L12.5671094,1.03109375 L12.5671094,1.67820313 L11.2586719,1.67820313 L11.2586562,1.03109375 Z M6.02310937,1.03109375 L7.33154687,1.03109375 L7.33154687,1.67820313 L6.02310937,1.67820313 L6.02310937,1.03109375 Z M3.40623437,1.03109375 L4.71467187,1.03109375 L4.71467187,1.67820313 L3.40623437,1.67820313 L3.40623437,1.03109375 Z M13.8755625,1.03109375 L13.8755625,1.67820313 L14.1991094,1.67820313 L14.1991094,2.00176563 L14.8462187,2.00176563 L14.8462187,1.03109375 L13.8755625,1.03109375 Z M14.1991094,5.92709375 L14.8462188,5.92709375 L14.8462188,7.23553125 L14.1991094,7.23553125 L14.1991094,5.92709375 Z M14.1991094,3.31021875 L14.8462188,3.31021875 L14.8462188,4.61865625 L14.1991094,4.61865625 L14.1991094,3.31021875 Z M11.543125,9.9573125 L12.6382344,9.1093125 C12.7200156,9.0453125 12.7644531,8.94576563 12.7555781,8.84265625 C12.7466719,8.73953125 12.6862344,8.64709375 12.5955781,8.59909375 L7.05421875,5.616 C6.94770069,5.55923356 6.81788613,5.56964875 6.72178125,5.64267188 C6.62578125,5.71732813 6.58310937,5.84 6.6115625,5.95732813 L8.11021875,12.0693281 C8.13510937,12.1706719 8.208,12.2506719 8.30578125,12.2844375 C8.40348029,12.3180415 8.51150307,12.3007058 8.59378125,12.2382188 L9.68889062,11.3902188 L12.056875,14.448 C12.114649,14.5230345 12.2039567,14.5671094 12.2986562,14.5671094 C12.3644375,14.5671094 12.4302187,14.5457813 12.4853125,14.5031094 L13.8542187,13.4435625 C13.9182031,13.3937813 13.960875,13.3208906 13.9697656,13.2408906 C13.9804219,13.1608906 13.9573125,13.0791094 13.9075469,13.0151094 L11.5431094,9.95734375 L11.543125,9.9573125 Z" id="形状" fill="#333333"></path>
                        </g>
                    </g>
                </g>
            </g>
        </g>
    </g>
</svg>