<?xml version="1.0" encoding="UTF-8"?>
<svg width="20px" height="20px" viewBox="0 0 20 20" version="1.1" xmlns="http://www.w3.org/2000/svg" xmlns:xlink="http://www.w3.org/1999/xlink">
    <title>write</title>
    <g id="辅助办案" stroke="none" stroke-width="1" fill="none" fill-rule="evenodd">
        <g id="阅卷笔录-大纲" transform="translate(-1602, -15)" fill="#FFFFFF" fill-rule="nonzero">
            <g id="write" transform="translate(1602, 15)">
                <rect id="矩形" opacity="0" x="0" y="0" width="20" height="20"></rect>
                <path d="M15.4492188,17.0980469 L4.2046875,17.0980469 C3.60859375,17.0980469 3.12519531,16.6148437 3.12519531,16.0185547 L3.12519531,4.70683594 C3.12519531,4.11074219 3.60839844,3.62734375 4.2046875,3.62734375 L11.4443359,3.62734375 C11.7423828,3.62734375 11.9839844,3.86894531 11.9839844,4.16699219 C11.9839844,4.46503906 11.7423828,4.70664062 11.4443359,4.70664062 L5.01816406,4.70664062 C4.56894531,4.70664062 4.20488281,5.07070312 4.20488281,5.51992187 L4.20488281,15.2050781 C4.20488281,15.6542969 4.56894531,16.0183594 5.01816406,16.0183594 L14.6357422,16.0183594 C15.0849609,16.0183594 15.4490234,15.6542969 15.4490234,15.2050781 L15.4490234,8.99492187 C15.4490234,8.696875 15.690625,8.45527344 15.9886719,8.45527344 C16.2867187,8.45527344 16.5283204,8.696875 16.5283204,8.99492187 L16.5283204,16.0185547 C16.5285156,16.6148437 16.0453125,17.0980469 15.4492188,17.0980469 Z M15.8724609,3.88671875 C15.5265625,3.54082031 14.9658203,3.54082031 14.6201172,3.88671875 L7.95917969,10.5476562 L6.7875,13.1710937 C6.72089844,13.4261719 6.94648438,13.6619141 7.20429687,13.6068359 L9.93300781,12.5636719 L9.93320312,12.5638672 L16.6152344,5.88203125 C16.9611328,5.53613281 16.9611328,4.97539062 16.6152344,4.6296875 L15.8724609,3.88671875 Z M15.9890625,5.25585937 L15.4544922,5.79042969 L14.7117187,5.04765625 L15.2462891,4.51308594 L15.9890625,5.25585937 Z M7.98027344,12.6707031 C7.86230469,12.7501953 7.72441406,12.6021484 7.81191406,12.4900391 L8.54960937,11.1802734 L9.27167969,11.9023438 L7.98027344,12.6707031 L7.98027344,12.6707031 Z M9.190625,10.56875 L14.0855469,5.67382812 L14.8283203,6.41660156 L9.93339844,11.3115234 L9.190625,10.56875 Z" id="形状"></path>
            </g>
        </g>
    </g>
</svg>