<?xml version="1.0" encoding="UTF-8"?>
<svg width="16px" height="16px" viewBox="0 0 16 16" version="1.1" xmlns="http://www.w3.org/2000/svg" xmlns:xlink="http://www.w3.org/1999/xlink">
    <title>剪切板</title>
    <g id="辅助办案" stroke="none" stroke-width="1" fill="none" fill-rule="evenodd">
        <g id="阅卷笔录-大纲" transform="translate(-1687, -115)" fill="#000000" fill-rule="nonzero">
            <g id="编组-26" transform="translate(980, 103)">
                <g id="编组-7" transform="translate(89, 0)">
                    <g id="剪切板" transform="translate(618, 12)">
                        <rect id="矩形" opacity="0" x="0" y="0" width="16" height="16"></rect>
                        <path d="M13.7690469,2.71573437 L12.107875,2.71573437 C11.9272812,2.71573437 11.7811406,2.86201562 11.7811406,3.04245312 C11.7811406,3.22289062 11.9272812,3.36921875 12.1078594,3.36921875 L13.7690625,3.36921875 L13.7690625,14.3559375 L2.241125,14.3559375 L2.241125,3.36921875 L3.92909375,3.36921875 C4.10971875,3.36921875 4.25584375,3.22289062 4.25584375,3.04246875 C4.25584375,2.86201562 4.10970312,2.71573437 3.92910937,2.71573437 L2.241125,2.71573437 C1.880875,2.71573437 1.58764062,3.00879687 1.58764062,3.36921875 L1.58764062,14.3559375 C1.58764062,14.7162031 1.880875,15.0094375 2.241125,15.0094375 L13.7690469,15.0094375 C14.1292812,15.0094375 14.4225312,14.7162031 14.4225312,14.3559531 L14.4225312,3.36921875 C14.4225312,3.00879687 14.1292812,2.71573437 13.7690469,2.71573437 Z M5.41154688,3.38964062 L10.5986094,3.38964062 C10.7792188,3.38964062 10.9253594,3.24334375 10.9253594,3.062875 C10.9253594,2.88245312 10.7792188,2.73615625 10.5986094,2.73615625 L9.59667188,2.73615625 C9.60146875,2.692125 9.60817188,2.64873437 9.60817188,2.60340625 C9.60817188,1.71953125 8.88895313,1.00032812 8.00510938,1.00032812 C7.12123438,1.00032812 6.40201563,1.71954687 6.40201563,2.60340625 C6.40201563,2.64873437 6.40873438,2.692125 6.4135,2.73615625 L5.4115625,2.73615625 C5.23096875,2.73615625 5.08484374,2.88245312 5.08484374,3.062875 C5.08484374,3.24334375 5.2309375,3.38964062 5.4115625,3.38964062 L5.41154688,3.38964062 Z M7.05548437,2.60340625 C7.05548437,2.07979687 7.48145312,1.6538125 8.00509375,1.6538125 C8.52870312,1.6538125 8.9546875,2.07979687 8.9546875,2.60340625 C8.9546875,2.649375 8.94415625,2.692125 8.93714062,2.73615625 L7.07303125,2.73615625 C7.066,2.692125 7.05548437,2.64935937 7.05548437,2.60340625 L7.05548437,2.60340625 Z M4.72042187,6.58559375 L11.28975,6.58559375 C11.4703437,6.58559375 11.6164687,6.43928125 11.6164687,6.25884375 C11.6164687,6.07840625 11.4703437,5.93209375 11.28975,5.93209375 L4.72042187,5.93209375 C4.53979687,5.93209375 4.3936875,6.07842188 4.3936875,6.25884375 C4.3936875,6.43926563 4.53982812,6.58557813 4.72040625,6.58557813 L4.72042187,6.58559375 Z M4.72042187,9.39353125 L11.28975,9.39353125 C11.4703437,9.39353125 11.6164687,9.24739062 11.6164687,9.0668125 C11.6164687,8.88623437 11.4703437,8.74004687 11.28975,8.74004687 L4.72042187,8.74004687 C4.53979687,8.74004687 4.3936875,8.88620312 4.3936875,9.06679687 C4.3936875,9.24739062 4.53982812,9.39353125 4.72040625,9.39353125 L4.72042187,9.39353125 Z M4.72042187,12.2015 L11.28975,12.2015 C11.4703437,12.2015 11.6164687,12.0553594 11.6164687,11.8747344 C11.6164687,11.6941406 11.4703437,11.5480156 11.28975,11.5480156 L4.72042187,11.5480156 C4.53979687,11.5480156 4.3936875,11.6941406 4.3936875,11.8747344 C4.3936875,12.0553594 4.53982812,12.2014844 4.72040625,12.2014844 L4.72042187,12.2015 Z" id="形状"></path>
                    </g>
                </g>
            </g>
        </g>
    </g>
</svg>