<?xml version="1.0" encoding="UTF-8"?>
<svg width="20px" height="20px" viewBox="0 0 20 20" version="1.1" xmlns="http://www.w3.org/2000/svg" xmlns:xlink="http://www.w3.org/1999/xlink">
    <title>文书资料</title>
    <g id="辅助办案" stroke="none" stroke-width="1" fill="none" fill-rule="evenodd">
        <g id="阅卷笔录-大纲" transform="translate(-1703, -15)" fill="#FFFFFF" fill-rule="nonzero">
            <g id="文书资料" transform="translate(1703, 15)">
                <rect id="矩形" opacity="0" x="0" y="0" width="20" height="20"></rect>
                <path d="M6.55273438,11.3220313 L11.2402344,11.3220313 L11.2402344,12.2595313 L6.55273438,12.2595313 L6.55273438,11.3220313 Z M6.55273438,8.06033203 L13.7541016,8.06033203 L13.7541016,8.99783203 L6.55273438,8.99783203 L6.55273438,8.06033203 Z M14.6972656,5.08371094 L14.3847656,5.08371094 L14.3847656,4.46289062 C14.3847656,3.51517578 13.6137305,2.74414062 12.6660156,2.74414062 L5.30273438,2.74414062 C4.35501953,2.74414062 3.58398438,3.51517578 3.58398438,4.46289062 L3.58398438,5.08371094 L3.57980469,5.08371094 L3.57980469,15.7385156 C3.57980469,16.6885547 4.35271484,17.4614453 5.30273438,17.4614453 L14.6972656,17.4614453 C15.6473047,17.4614453 16.4201953,16.6885547 16.4201953,15.7385156 L16.4201953,6.80664063 C16.4201953,5.85660156 15.6473047,5.08371094 14.6972656,5.08371094 Z M4.52148438,4.46289062 C4.52148438,4.03210937 4.87195313,3.68164062 5.30273438,3.68164062 L12.6660156,3.68164062 C13.0967969,3.68164062 13.4472656,4.03210937 13.4472656,4.46289062 L13.4472656,5.08371094 L4.52148438,5.08371094 L4.52148438,4.46289062 L4.52148438,4.46289062 Z M15.4743359,15.7385156 C15.4743359,16.1669922 15.1257422,16.5155859 14.6972656,16.5155859 L5.30273438,16.5155859 C4.87425781,16.5155859 4.52566406,16.1669727 4.52566406,15.7385156 L4.52566406,6.02957031 L14.6972656,6.02957031 C15.1257422,6.02957031 15.4743359,6.37816406 15.4743359,6.80664063 L15.4743359,15.7385156 Z" id="形状"></path>
            </g>
        </g>
    </g>
</svg>