<?xml version="1.0" encoding="UTF-8"?>
<svg width="20px" height="20px" viewBox="0 0 20 20" version="1.1" xmlns="http://www.w3.org/2000/svg" xmlns:xlink="http://www.w3.org/1999/xlink">
    <title>文件-文书审查</title>
    <g id="辅助办案" stroke="none" stroke-width="1" fill="none" fill-rule="evenodd">
        <g id="阅卷笔录-大纲" transform="translate(-1400, -15)" fill-rule="nonzero">
            <g id="文件-文书审查" transform="translate(1400, 15)">
                <rect id="矩形" fill="#000000" opacity="0" x="0" y="0" width="20" height="20"></rect>
                <path d="M18.5585938,17.6738281 L16.7148438,15.8222656 C17.8710938,14.2363281 17.734375,12.0019531 16.3046875,10.5703125 C15.5136719,9.77929688 14.4765625,9.3828125 13.4394531,9.3828125 C12.4023438,9.3828125 11.3652344,9.77929688 10.5742188,10.5703125 C8.9921875,12.1523438 8.9921875,14.71875 10.5742188,16.3007812 C11.3652344,17.0917969 12.4023438,17.4882812 13.4394531,17.4882812 C14.28125,17.4882812 15.1230469,17.2285156 15.8339844,16.7070312 L17.6757812,18.5546875 C17.7988281,18.6777344 17.9589844,18.7382812 18.1191406,18.7382812 C18.2792969,18.7382812 18.4375,18.6777344 18.5605469,18.5566406 C18.8007812,18.3144531 18.8007812,17.9179688 18.5585938,17.6738281 Z M13.4375,16.2402344 C12.6894531,16.2402344 11.984375,15.9492187 11.4550781,15.4199219 C10.9257813,14.890625 10.6347656,14.1875 10.6347656,13.4375 C10.6347656,12.6875 10.9257813,11.984375 11.4550781,11.4550781 C11.984375,10.9257812 12.6875,10.6347656 13.4375,10.6347656 C14.1875,10.6347656 14.890625,10.9257812 15.4199219,11.4550781 C15.9492188,11.984375 16.2402344,12.6875 16.2402344,13.4375 C16.2402344,14.1875 15.9492188,14.890625 15.4199219,15.4199219 C14.890625,15.9492187 14.1855469,16.2402344 13.4375,16.2402344 Z M9.2734375,16.2597656 L3.25195313,16.2597656 C2.74609375,16.2597656 2.50976562,16.140625 2.50976562,15.6347656 C2.50976562,15.1289062 2.74609375,15.0097656 3.25195313,15.0097656 L8.66015625,15.0097656 C8.52734375,14.6035156 8.44726562,14.1835938 8.41992187,13.7597656 L5.00976562,13.7597656 L5.00976562,2.50976562 L13.7597656,2.50976562 L13.7597656,8.41796875 C14.1835938,8.4453125 14.6035156,8.52539062 15.0097656,8.65820312 L15.0097656,1.25976562 L2.50976562,1.25976562 C1.8203125,1.25976562 1.25976563,1.8203125 1.25976563,2.50976562 L1.25976563,16.2597656 C1.25976563,16.9492188 1.8203125,17.5097656 2.50976562,17.5097656 L10.484375,17.5097656 C10.2734375,17.3554688 10.0703125,17.1835938 9.88085938,16.9941406 C9.65234375,16.7636719 9.44921875,16.5175781 9.2734375,16.2597656 Z M2.50976562,2.50976562 L3.75976562,2.50976562 L3.75976562,13.7597656 L2.50976562,13.7597656 L2.50976562,2.50976562 Z" id="形状" fill="#FFFFFF"></path>
            </g>
        </g>
    </g>
</svg>