<?xml version="1.0" encoding="UTF-8"?>
<svg width="30px" height="30px" viewBox="0 0 30 30" version="1.1" xmlns="http://www.w3.org/2000/svg" xmlns:xlink="http://www.w3.org/1999/xlink">
    <title>编组 20</title>
    <g id="辅助办案" stroke="none" stroke-width="1" fill="none" fill-rule="evenodd">
        <g id="正文段落选项" transform="translate(-1021, -798)">
            <g id="编组-20" transform="translate(1021, 798)">
                <rect id="矩形" stroke="#DADADA" fill="#F9F9F9" x="0.5" y="0.5" width="29" height="29" rx="4"></rect>
                <g id="菜单" transform="translate(7, 7)" fill="#999999" fill-rule="nonzero">
                    <rect id="矩形" opacity="0" x="0" y="0" width="16" height="16"></rect>
                    <path d="M14.14375,2.2640625 L1.878125,2.2640625 C1.3890625,2.2640625 0.9921875,2.6640625 0.9921875,3.159375 L0.9921875,3.2796875 C0.9921875,3.7734375 1.3890625,3.8484375 1.878125,3.8484375 L14.14375,3.8484375 C14.6328125,3.8484375 15.0296875,3.775 15.0296875,3.2796875 L15.0296875,3.159375 C15.0296875,2.6640625 14.6328125,2.2640625 14.14375,2.2640625 L14.14375,2.2640625 Z M12.5109375,7.184375 L1.878125,7.184375 C1.3890625,7.184375 0.9921875,7.584375 0.9921875,8.0796875 L0.9921875,7.8734375 C0.9921875,8.3671875 1.3890625,8.76875 1.878125,8.76875 L12.5109375,8.76875 C13,8.76875 13.396875,8.36875 13.396875,7.8734375 L13.396875,8.0796875 C13.396875,7.5859375 13,7.184375 12.5109375,7.184375 Z M10.8796875,12.10625 L1.8796875,12.10625 C1.390625,12.10625 0.99375,12.50625 0.99375,13.0015625 L0.99375,13.121875 C0.99375,13.615625 1.390625,13.690625 1.8796875,13.690625 L10.8796875,13.690625 C11.36875,13.690625 11.765625,13.6171875 11.765625,13.121875 L11.765625,13 C11.765625,12.50625 11.36875,12.10625 10.8796875,12.10625 Z" id="形状"></path>
                </g>
            </g>
        </g>
    </g>
</svg>