<?xml version="1.0" encoding="UTF-8"?>
<svg width="14px" height="14px" viewBox="0 0 14 14" version="1.1" xmlns="http://www.w3.org/2000/svg" xmlns:xlink="http://www.w3.org/1999/xlink">
    <title>0leixingtongji</title>
    <g id="辅助办案" stroke="none" stroke-width="1" fill="none" fill-rule="evenodd">
        <g id="阅卷笔录-大纲" transform="translate(-88, -450)" fill="#86CA95" fill-rule="nonzero">
            <g id="编组-25" transform="translate(20, 163)">
                <g id="编组-18" transform="translate(20, 84)">
                    <g id="编组-17备份" transform="translate(48, 200)">
                        <g id="0leixingtongji" transform="translate(0, 3)">
                            <path d="M9.75438596,13.1764706 C9.96491227,13.1764706 10.1754386,13.3480392 10.1754386,13.5882353 C10.1754386,13.7941176 9.99999999,14 9.75438596,14 L7.75438597,14 C7.54385966,14 7.33333334,13.8284314 7.33333334,13.5882353 C7.33333334,13.3823529 7.50877194,13.1764706 7.75438597,13.1764706 Z M5.33333333,7.6862745 C5.96491228,7.6862745 6.45614036,8.16666666 6.42105263,8.78431373 L6.42105263,12.9019608 C6.42105262,13.5196078 5.92982456,14 5.29824561,14 L1.12280701,14 C0.491228071,14 0,13.4852941 0,12.8676471 L0,8.78431373 C0,8.16666666 0.491228071,7.6862745 1.12280701,7.6862745 Z M12.2105263,10.4313725 C12.4210526,10.4313725 12.6315789,10.6029412 12.6315789,10.8431373 C12.6315789,11.0833333 12.4561403,11.254902 12.2105263,11.254902 L7.75438597,11.254902 C7.54385966,11.254902 7.33333334,11.0833333 7.33333334,10.8431373 C7.33333334,10.6372549 7.50877194,10.4313725 7.75438597,10.4313725 Z M13.368421,7.6862745 C13.5789474,7.6862745 13.7894737,7.85784314 13.7894737,8.09803921 C13.7894737,8.33823529 13.5789474,8.50980393 13.368421,8.50980393 L7.75438597,8.50980393 C7.54385966,8.50980393 7.33333334,8.33823528 7.33333334,8.09803921 C7.33333334,7.89215686 7.50877194,7.6862745 7.75438597,7.6862745 Z M5.33333333,0.514705885 C5.96491228,0.514705885 6.45614036,1.02941176 6.45614036,1.64705882 L6.45614036,5.76470588 C6.45614036,6.38235294 5.92982456,6.86274509 5.29824561,6.86274509 L1.12280701,6.86274509 C0.491228071,6.86274509 0,6.34803922 0,5.73039216 L0,1.64705882 C0,1.02941177 0.491228071,0.514705885 1.12280701,0.514705885 Z M10.9178947,0.789764703 C11.0077193,0.791960782 11.0526316,0.802941174 11.0526316,0.857843137 C11.122807,0.995098043 11.122807,0.995098043 11.122807,1.0637255 L10.8421053,3.53431373 C12.3859649,2.84803921 13.1929824,2.47058823 13.2631579,2.47058823 C13.3333333,2.47058823 13.4035088,2.57352941 13.4385965,2.67647059 C13.6491228,3.15686273 13.7192982,3.74019607 13.6491228,4.22058823 C13.5087719,4.9754902 13.122807,5.62745098 12.5614035,6.10784314 C11.9649123,6.58823529 11.2982456,6.86274509 10.5263158,6.86274509 L10.1403509,6.86274509 C9.22807017,6.79411765 8.49122807,6.38235295 8,5.73039216 C7.40350878,5.07843137 7.2631579,4.32352941 7.33333334,3.46568627 C7.4736842,2.67647059 7.82456139,2.0245098 8.42105263,1.54411764 C9.01754386,1.06372548 9.68421053,0.789215684 10.4561404,0.789215684 Z M11.8947368,0 C12.3508772,0 12.7368421,0.205882359 13.122807,0.480392158 C13.5087719,0.789215684 13.7894737,1.16666666 14,1.54411764 C14,1.64705882 13.9298246,1.64705882 13.8596491,1.64705882 L11.6140351,2.50490196 L11.4394386,2.50435294 C11.4035088,2.50215686 11.4035088,2.49117647 11.4035088,2.4362745 L11.6842105,0.0686274531 C11.8245614,0 11.8245614,0 11.8947368,0 Z" id="形状结合"></path>
                        </g>
                    </g>
                </g>
            </g>
        </g>
    </g>
</svg>