<?xml version="1.0" encoding="UTF-8"?>
<svg width="14px" height="14px" viewBox="0 0 14 14" version="1.1" xmlns="http://www.w3.org/2000/svg" xmlns:xlink="http://www.w3.org/1999/xlink">
    <title>树状单元/展开1</title>
    <g id="辅助办案" stroke="none" stroke-width="1" fill="none" fill-rule="evenodd">
        <g id="阅卷笔录-大纲" transform="translate(-64, -250)" fill-rule="nonzero">
            <g id="编组-25" transform="translate(20, 163)">
                <g id="编组-18" transform="translate(20, 84)">
                    <g id="文件夹" transform="translate(24, 3)">
                        <rect id="矩形" fill="#000000" opacity="0" x="0" y="0" width="14" height="14"></rect>
                        <path d="M11.7837891,11.5322266 C11.7837891,11.9574219 11.4392578,12.3005859 11.0154297,12.3005859 L1.41503906,12.3005859 L2.75898437,6.09082031 C2.75898437,5.66699219 3.10078125,5.32246094 3.52597656,5.32246094 L12.3607422,5.32246094 C12.7845703,5.32246094 13.1277344,5.66699219 13.1277344,6.09082031 L11.7837891,11.5322266 L11.7837891,11.5322266 Z M2.95039062,4.74550781 L11.5910156,4.74550781 L11.5910156,3.99082031 C11.5910156,3.56699219 11.2464844,3.22246094 10.8226562,3.22246094 L6.21523437,3.22246094 L6.21523437,2.5265625 C6.21523437,2.10273438 5.87070312,1.75820313 5.446875,1.75820313 L1.6078125,1.75820313 C1.18398437,1.75820313 0.839453125,2.10273438 0.839453125,2.5265625 L0.839453125,11.5308594 L2.18203125,5.5125 C2.18203125,5.09003906 2.5265625,4.74550781 2.95039062,4.74550781 Z" id="形状" fill="#096DD9"></path>
                    </g>
                </g>
            </g>
        </g>
    </g>
</svg>