<?xml version="1.0" encoding="UTF-8"?>
<svg width="14px" height="14px" viewBox="0 0 14 14" version="1.1" xmlns="http://www.w3.org/2000/svg" xmlns:xlink="http://www.w3.org/1999/xlink">
    <title>icon_文件</title>
    <g id="辅助办案" stroke="none" stroke-width="1" fill="none" fill-rule="evenodd">
        <g id="阅卷笔录-大纲" transform="translate(-88, -290)" fill-rule="nonzero">
            <g id="编组-25" transform="translate(20, 163)">
                <g id="编组-18" transform="translate(20, 84)">
                    <g id="编组-39" transform="translate(24, 40)">
                        <g id="icon_文件" transform="translate(31, 10) scale(-1, 1) translate(-31, -10)translate(24, 3)">
                            <rect id="矩形" fill="#000000" opacity="0" x="0" y="0" width="14" height="14"></rect>
                            <g id="编组" transform="translate(1.882, 0.8777)" fill="#E7AA26">
                                <path d="M9.1109375,0 C9.78769531,0 10.2224609,0.62890625 10.2224609,1.30429688 L10.2224609,11.134375 C10.2224609,11.8097656 9.78769531,12.2007813 9.11230469,12.2007813 L1.33027344,12.2007813 C0.653515625,12.2007813 0,11.8097656 0,11.134375 L0,3.96621094 C0,3.61894531 0.36640625,3.29765625 0.715039062,3.29765625 L2.76171875,3.29765625 C3.11035156,3.29765625 3.29628906,3.08574219 3.29628906,2.73710938 L3.29628906,0.6890625 C3.29628906,0.341796875 3.66269531,0 3.99082031,0 Z M8.40820312,8.90449219 L1.81289063,8.90449219 C1.44921875,8.90449219 1.15390625,9.19980469 1.15390625,9.56347656 C1.15390625,9.92714844 1.44921875,10.2224609 1.81289063,10.2224609 L8.40820312,10.2224609 C8.771875,10.2224609 9.0671875,9.92714844 9.0671875,9.56347656 C9.0671875,9.19980469 8.771875,8.90449219 8.40820312,8.90449219 Z M8.54765625,6.43261719 L1.92773438,6.43261719 C1.56542969,6.43261719 1.26875,6.72929688 1.26875,7.09160156 C1.26875,7.45390625 1.56542969,7.75058594 1.92773438,7.75058594 L8.54765625,7.75058594 C8.90996094,7.75058594 9.20664063,7.45253906 9.20664063,7.09160156 C9.20664063,6.72929688 8.90996094,6.43261719 8.54765625,6.43261719 Z M8.54765625,3.79394531 L5.09003906,3.79394531 C4.72773438,3.79394531 4.43105469,4.090625 4.43105469,4.45292969 C4.43105469,4.81523438 4.72773438,5.11191406 5.09003906,5.11191406 L8.54765625,5.11191406 C8.90996094,5.11191406 9.20664063,4.81523438 9.20664063,4.45292969 C9.20664063,4.090625 8.90996094,3.79394531 8.54765625,3.79394531 Z M2.48417969,0.37734375 C2.64824219,0.21328125 2.80136719,0.274804688 2.80136719,0.500390625 L2.80136719,2.17929688 C2.80136719,2.52792969 2.47597656,2.80273438 2.12734375,2.80273438 L0.550976562,2.80273438 C0.325390625,2.80273438 0.27890625,2.65507813 0.422460937,2.49238281 Z" id="形状结合"></path>
                            </g>
                        </g>
                    </g>
                </g>
            </g>
        </g>
    </g>
</svg>