<?xml version="1.0" encoding="UTF-8"?>
<svg width="20px" height="20px" viewBox="0 0 20 20" version="1.1" xmlns="http://www.w3.org/2000/svg" xmlns:xlink="http://www.w3.org/1999/xlink">
    <title>pli-file-edit</title>
    <g id="辅助办案" stroke="none" stroke-width="1" fill="none" fill-rule="evenodd">
        <g id="阅卷笔录-大纲" transform="translate(-1299, -15)" fill-rule="nonzero">
            <g id="pli-file-edit" transform="translate(1299, 15)">
                <rect id="矩形" fill="#000000" opacity="0" x="0" y="0.000624980469" width="19.999375" height="19.999375"></rect>
                <path d="M11.1677369,18.5263477 C11.0294707,18.5274111 10.8997792,18.4594454 10.8219801,18.3451387 C10.7441809,18.230832 10.7285279,18.0852497 10.7802491,17.957017 L11.930799,15.0390613 C11.9516366,14.9855033 11.9838404,14.9371009 12.0251906,14.8971907 L15.2181182,11.7042631 C15.3810284,11.5419314 15.644545,11.5419314 15.8074552,11.7042631 L17.5748414,13.4716493 C17.7376017,13.6346339 17.7376017,13.8986463 17.5748414,14.0616309 L14.3819138,17.2545389 C14.3416596,17.2951635 14.2933278,17.3268879 14.2400433,17.347661 L11.3202126,18.498211 C11.2714499,18.5164547 11.2198007,18.5257697 11.1677369,18.5257101 L11.1677369,18.5263477 Z M12.6770257,15.4252797 L11.9089443,17.3707853 L13.8556998,16.6033288 L16.6923885,13.7660151 L15.5130894,12.587966 L12.6776312,15.4252797 L12.6770257,15.4252797 Z M17.2811006,14.3553522 L16.6917635,13.7660151 L17.5417174,12.9166862 C17.8035843,12.6541944 17.6885879,12.0242531 17.4717196,11.8067599 C17.2548514,11.5917667 16.6248906,11.4761648 16.3624184,11.7373871 L15.511859,12.587341 L14.9225024,11.998004 L15.7730618,11.1480501 C16.4155417,10.5055897 17.5848411,10.7430822 18.0598067,11.2174229 C18.5347919,11.6930135 18.7716399,12.8641878 18.1298045,13.5053983 L17.2804756,14.3547272 L17.2811006,14.3553522 Z M13.8250758,16.7995727 L12.5145308,15.4896527 L13.1038678,14.9003156 L14.4144128,16.2102356 L13.8250758,16.7995727 Z M15.621836,15.0546858 L14.282542,13.7210165 L14.870629,13.1304295 L16.2099231,14.4640988 L15.621836,15.0546858 L15.621836,15.0546858 Z M9.80971298,19.999375 L1.89330021,19.999375 C1.6632272,19.9990308 1.47680195,19.8126056 1.47645777,19.5825326 L1.47645777,5.06843536 C1.47645777,4.96612124 1.51403695,4.86737082 1.58205994,4.79094403 L5.74870707,0.139370645 C5.82787653,0.0510882999 5.94072218,0.000452161105 6.05930283,0 L16.0586779,0 C16.2886707,0 16.4755398,0.18686916 16.4755398,0.416842442 L16.4755398,9.16629558 C16.4755398,9.3965167 16.2889087,9.58314779 16.0586876,9.58314779 C15.8284665,9.58314779 15.6418354,9.3965167 15.6418354,9.16629558 L15.6418354,0.833704415 L6.24679698,0.833704415 L2.3095372,5.22780538 L2.3095372,19.1662956 L9.80906847,19.1662956 C10.0304995,19.1783303 10.2038801,19.3613899 10.2038801,19.5831478 C10.2038801,19.8049056 10.0304995,19.9879653 9.80906847,20 L9.80971298,19.999375 Z M6.05990828,5.83339193 L2.31016218,5.83339193 C2.07994107,5.83339193 1.89330997,5.64676083 1.89330997,5.41653972 C1.89330997,5.1863186 2.07994107,4.99968751 2.31016218,4.99968751 L5.64308537,4.99968751 L5.64308537,0.833079435 C5.64308537,0.602858318 5.82971646,0.416227227 6.05993758,0.416227227 C6.2901587,0.416227227 6.47678979,0.602858318 6.47678979,0.833079435 L6.47678979,5.41588544 C6.47678979,5.5264457 6.43287737,5.63247918 6.35469946,5.71065709 C6.27652156,5.788835 6.17048807,5.83275259 6.05992781,5.83274741 L6.05990828,5.83339193 Z" id="形状" fill="#FFFFFF"></path>
            </g>
        </g>
    </g>
</svg>