<?xml version="1.0" encoding="UTF-8"?>
<svg width="20px" height="20px" viewBox="0 0 20 20" version="1.1" xmlns="http://www.w3.org/2000/svg" xmlns:xlink="http://www.w3.org/1999/xlink">
    <title>机器人</title>
    <g id="辅助办案" stroke="none" stroke-width="1" fill="none" fill-rule="evenodd">
        <g id="阅卷笔录-大纲" transform="translate(-1501, -15)" fill-rule="nonzero">
            <g id="机器人" transform="translate(1501, 15)">
                <rect id="矩形" fill="#000000" opacity="0" x="0" y="0" width="20" height="20"></rect>
                <path d="M19.1666602,12.0833398 L17.0833398,12.0833398 L17.0833398,11.6666602 C17.1210888,9.79991303 16.2629582,8.02789634 14.775,6.9 L16.8041602,3.71666016 C17.3969973,3.85410508 18.0026673,3.54463473 18.2386606,2.98369433 C18.474654,2.42275393 18.2723821,1.77337418 17.7595893,1.44566923 C17.2467965,1.11796428 16.5725199,1.2071777 16.1625972,1.65696698 C15.7526745,2.10675627 15.726245,2.78639547 16.1,3.26666016 L14.0875,6.43333984 C12.8379846,5.74121917 11.428159,5.3905547 10,5.41666016 C8.57184096,5.3905547 7.16201539,5.74121917 5.9125,6.43333984 L3.9,3.26666016 C4.27375505,2.78639547 4.24732546,2.10675627 3.83740277,1.65696698 C3.42748009,1.2071777 2.75320349,1.11796428 2.24041067,1.44566923 C1.72761785,1.77337418 1.52534599,2.42275393 1.76133937,2.98369433 C1.99733275,3.54463473 2.60300268,3.85410508 3.19583984,3.71666016 L5.225,6.9 C3.73704179,8.02789634 2.87891123,9.79991303 2.91666016,11.6666602 L2.91666016,12.0833398 L0.833339844,12.0833398 L0.833339844,17.0833398 L2.91666016,17.0833398 L2.91666016,18.75 L17.0833398,18.75 L17.0833398,17.0833398 L19.1666602,17.0833398 L19.1666602,12.0833398 Z M1.66666016,16.25 L1.66666016,12.9166602 L2.91666016,12.9166602 L2.91666016,16.25 L1.66666016,16.25 Z M16.25,17.9166602 L3.75,17.9166602 L3.75,11.6666602 C3.75,7.91666016 6.8875,6.25 10,6.25 C13.1125,6.25 16.25,7.91666016 16.25,11.6666602 L16.25,17.9166602 L16.25,17.9166602 Z M18.3333398,16.25 L17.0833398,16.25 L17.0833398,12.9166602 L18.3333398,12.9166602 L18.3333398,16.25 Z M7.08333003,12.9166602 C7.08189385,13.2153414 7.24040867,13.4919551 7.49883592,13.6417147 C7.75726317,13.7914743 8.07607668,13.7914743 8.33450393,13.6417147 C8.59293117,13.4919551 8.75144599,13.2153414 8.75000981,12.9166602 C8.75144599,12.6179789 8.59293117,12.3413653 8.33450393,12.1916057 C8.07607668,12.041846 7.75726317,12.041846 7.49883592,12.1916057 C7.24040867,12.3413653 7.08189385,12.6179789 7.08333003,12.9166602 L7.08333003,12.9166602 Z M11.2499902,12.9166602 C11.248554,13.2153414 11.4070688,13.4919551 11.6654961,13.6417147 C11.9239233,13.7914743 12.2427368,13.7914743 12.5011641,13.6417147 C12.7595913,13.4919551 12.9181061,13.2153414 12.91667,12.9166602 C12.9181061,12.6179789 12.7595913,12.3413653 12.5011641,12.1916057 C12.2427368,12.041846 11.9239233,12.041846 11.6654961,12.1916057 C11.4070688,12.3413653 11.248554,12.6179789 11.2499902,12.9166602 Z M12.9166602,10.4166602 L7.08333984,10.4166602 C5.70262797,10.4166602 4.58333984,11.5359483 4.58333984,12.9166602 C4.58333984,14.297372 5.70262797,15.4166602 7.08333984,15.4166602 L12.9166602,15.4166602 C14.297372,15.4166602 15.4166602,14.297372 15.4166602,12.9166602 C15.4166602,11.5359483 14.297372,10.4166602 12.9166602,10.4166602 Z M12.91667,14.5833398 L7.08333984,14.5833398 C6.16286348,14.5833398 5.41666997,13.8371463 5.41666997,12.9166699 C5.41666997,11.9961936 6.16286348,11.25 7.08333984,11.25 L12.91667,11.25 C13.8371365,11.25 14.5833301,11.9961935 14.5833301,12.9166699 C14.5833301,13.8371463 13.8371365,14.5833398 12.91667,14.5833398 L12.91667,14.5833398 Z" id="形状" fill="#FFFFFF"></path>
            </g>
        </g>
    </g>
</svg>