<?xml version="1.0" encoding="UTF-8"?>
<svg width="16px" height="16px" viewBox="0 0 16 16" version="1.1" xmlns="http://www.w3.org/2000/svg" xmlns:xlink="http://www.w3.org/1999/xlink">
    <title>截屏</title>
    <g id="辅助办案" stroke="none" stroke-width="1" fill="none" fill-rule="evenodd">
        <g id="阅卷笔录-大纲" transform="translate(-894, -115)" fill-rule="nonzero">
            <g id="编组-23" transform="translate(20, 70)">
                <g id="编组-14" transform="translate(0, 33)">
                    <g id="编组-2" transform="translate(730, 12)">
                        <g id="截屏" transform="translate(144, 0)">
                            <rect id="矩形" fill="#000000" opacity="0" x="0" y="0" width="16" height="16"></rect>
                            <path d="M12.5568561,9.08542897 C11.7006529,9.08732818 10.8762995,9.41067638 10.2466628,9.99158998 L8.56151586,7.58849612 L13.3369218,0.76466585 C13.4510207,0.542480983 13.3840549,0.270083799 13.1799882,0.126305849 C12.9759214,-0.0174721006 12.6972192,0.0113801037 12.5268524,0.193920694 L7.95647192,6.70234617 L3.37609019,0.193920694 C3.21307098,-0.0165989428 2.91395143,-0.0624505931 2.69548975,0.0895923315 C2.47702808,0.241635256 2.4157318,0.538325764 2.55601953,0.76466585 L7.33642611,7.57848277 L5.70128541,9.91149884 C4.32736436,8.73486689 2.27977415,8.8176027 1.00502433,10.101258 C-0.269725496,11.3849133 -0.34058192,13.4354237 0.84251121,14.8042167 C2.02560434,16.1730097 4.06258746,16.3972319 5.51444435,15.3184826 C6.96630124,14.2397333 7.34209063,12.2227886 6.37633805,10.6925086 L7.9514713,8.44959706 L9.59661324,10.7926265 C8.81274075,12.1388572 9.03080587,13.844537 10.1280788,14.9496875 C11.2253517,16.0548379 12.9276433,16.2833016 14.2768822,15.5064961 C15.6261211,14.7296907 16.2851564,13.1417261 15.8830746,11.6363291 C15.4809928,10.130932 14.118267,9.08427461 12.5618567,9.08542897 L12.5568561,9.08542897 Z M3.46608575,14.9680359 C2.47865995,14.9680359 1.58856108,14.3722228 1.21116282,13.45866 C0.833764559,12.5450973 1.04346056,11.4938603 1.74239405,10.7955194 C2.44132755,10.0971785 3.49172308,9.88939232 4.40340292,10.2691264 C5.31508276,10.6488606 5.90833438,11.5412609 5.90631605,12.5298797 C5.90355312,13.8772456 4.81184143,14.9680359 3.46610138,14.9680359 L3.46608575,14.9680359 Z M12.5568561,14.9680359 C11.5694289,14.9680359 10.6793252,14.3722331 10.301922,13.4586709 C9.92451886,12.5451087 10.134211,11.4938691 10.8331433,10.7955249 C11.5320755,10.0971808 12.5824723,9.88939173 13.4941541,10.2691249 C14.4058358,10.6488582 14.9990891,11.5412594 14.9970708,12.5298797 C14.9943079,13.8772456 13.9025962,14.9680359 12.5568561,14.9680359 L12.5568561,14.9680359 Z" id="形状" fill="#333333"></path>
                        </g>
                    </g>
                </g>
            </g>
        </g>
    </g>
</svg>