<?xml version="1.0" encoding="UTF-8"?>
<svg width="16px" height="16px" viewBox="0 0 16 16" version="1.1" xmlns="http://www.w3.org/2000/svg" xmlns:xlink="http://www.w3.org/1999/xlink">
    <title>广汽_自适应显示</title>
    <g id="辅助办案" stroke="none" stroke-width="1" fill="none" fill-rule="evenodd">
        <g id="阅卷笔录-大纲" transform="translate(-822, -115)" fill-rule="nonzero">
            <g id="编组-23" transform="translate(20, 70)">
                <g id="编组-14" transform="translate(0, 33)">
                    <g id="编组-2" transform="translate(730, 12)">
                        <g id="广汽_自适应显示" transform="translate(72, 0)">
                            <rect id="矩形" fill="#000000" opacity="0" x="0" y="0" width="16" height="16"></rect>
                            <path d="M13.8181875,1.636375 C14.1090938,1.636375 14.3636406,1.89092188 14.3636406,2.18184375 L14.3636406,13.8182031 C14.3636406,14.1091094 14.1090937,14.3636563 13.8181719,14.3636563 L2.1818125,14.3636563 C1.89090625,14.3636563 1.63635938,14.1090938 1.63635938,13.8181719 L1.63635938,2.18182813 C1.63635938,1.89092188 1.89090625,1.636375 2.18182813,1.636375 L13.8181875,1.636375 Z M13.2727344,2.72726563 L2.72726563,2.72726563 L2.72726563,13.2727344 L13.2727344,13.2727344 L13.2727344,2.72726563 Z M4.1818125,9.52726562 C4.43635937,9.52726562 4.65454687,9.74546875 4.65454687,10 L4.65454687,11.3454687 L6,11.3454687 C6.25453125,11.3454687 6.47273437,11.5636406 6.47273437,11.8181875 C6.47273437,12.0727344 6.25453125,12.2909062 6,12.2909062 L4.1818125,12.2909062 C3.92728125,12.2909062 3.70909375,12.0727344 3.70909375,11.8181875 L3.70909375,10 C3.70909375,9.74546875 3.92726562,9.52726562 4.1818125,9.52726562 Z M11.8181875,9.52726562 C12.0727344,9.52726562 12.2909062,9.74546875 12.2909062,10 L12.2909062,11.8181875 C12.2909062,12.0727187 12.0727344,12.2909062 11.8181875,12.2909062 L10,12.2909062 C9.74546875,12.2909062 9.52726562,12.0727344 9.52726562,11.8181875 C9.52726562,11.5636406 9.74546875,11.3454531 10,11.3454531 L11.3454687,11.3454531 L11.3454687,10 C11.3454687,9.74546875 11.5636406,9.52726562 11.8181875,9.52726562 Z M11.8181875,3.70909375 C12.0727187,3.70909375 12.2909062,3.92726562 12.2909062,4.1818125 L12.2909062,6 C12.2909062,6.25453125 12.0727344,6.47273437 11.8181875,6.47273437 C11.5636406,6.47273437 11.3454531,6.25454687 11.3454531,6 L11.3454531,4.65453125 L10,4.65453125 C9.74546875,4.65453125 9.52726562,4.43635937 9.52726562,4.1818125 C9.52726562,3.92726562 9.74546875,3.70909375 10,3.70909375 L11.8181875,3.70909375 Z M6,3.70909375 C6.25453125,3.70909375 6.47273437,3.92726562 6.47273437,4.1818125 C6.47273437,4.43635937 6.25453125,4.65454687 6,4.65454687 L4.65453125,4.65454687 L4.65453125,6 C4.65453125,6.25453125 4.43635937,6.47273437 4.1818125,6.47273437 C3.92728125,6.47273437 3.70909375,6.25454687 3.70909375,6 L3.70909375,4.1818125 C3.70909375,3.92728125 3.92726562,3.70909375 4.1818125,3.70909375 L6,3.70909375 Z" id="形状结合" fill="#333333"></path>
                        </g>
                    </g>
                </g>
            </g>
        </g>
    </g>
</svg>