<?xml version="1.0" encoding="UTF-8"?>
<svg width="20px" height="20px" viewBox="0 0 20 20" version="1.1" xmlns="http://www.w3.org/2000/svg" xmlns:xlink="http://www.w3.org/1999/xlink">
    <title>制作</title>
    <g id="数字卷宗" stroke="none" stroke-width="1" fill="none" fill-rule="evenodd">
        <g id="卷宗制作列表" transform="translate(-1605, -428)" fill="#096DD9" fill-rule="nonzero">
            <g id="编组-10" transform="translate(30, 408)">
                <g id="编组-3" transform="translate(1535, 20)">
                    <g id="制作" transform="translate(40, 0)">
                        <rect id="矩形" opacity="0" x="0" y="0" width="20" height="20"></rect>
                        <path d="M5.00390625,1.25 L6.25390625,1.25 L6.25390625,4.375 L5.00390625,4.375 L5.00390625,1.25 Z M6.88085938,2.5 L9.38476562,2.5 L9.38476562,3.75 L6.88085938,3.75 L6.88085938,2.5 Z M10.0097656,1.25 L11.2597656,1.25 L11.2597656,4.375 L10.0097656,4.375 L10.0097656,1.25 Z M3.12695312,17.5 C2.78125,17.5 2.50195312,17.2207031 2.50195312,16.875 L2.50195312,4.375 C2.50195312,4.02929688 2.78125,3.75 3.12695312,3.75 L4.37890625,3.75 L4.37890625,2.5 L3.12695312,2.5 C2.08984375,2.5 1.25,3.33984375 1.25,4.375 L1.25,16.875 C1.25,17.9101562 2.08984375,18.75 3.12695312,18.75 L12.5039062,18.75 L12.5039062,17.5 L3.12695312,17.5 Z M8.74609375,13.7304688 L4.390625,13.7304688 C4.04492188,13.7304688 3.765625,14.0097656 3.765625,14.3554688 C3.765625,14.7011719 4.04492188,14.9804688 4.390625,14.9804688 L8.74609375,14.9804688 C9.09179688,14.9804688 9.37110393,14.7011719 9.37110393,14.3554688 C9.37304688,14.0097656 9.09375,13.7304688 8.74609375,13.7304688 Z M4.39257812,9.98046875 C4.046875,9.98046875 3.76757812,10.2597656 3.76757812,10.6054688 C3.76757812,10.9511719 4.046875,11.2304688 4.39257812,11.2304688 L11.2480469,11.2304688 C11.59375,11.2304688 11.8730469,10.9511719 11.8730469,10.6054688 C11.8730469,10.2597656 11.59375,9.98046875 11.2480469,9.98046875 L4.39257812,9.98046875 Z M4.39257812,6.23046875 C4.046875,6.23046875 3.76757812,6.50976562 3.76757812,6.85546875 C3.76757812,7.20117188 4.046875,7.48046875 4.39257812,7.48046875 L11.8945313,7.48046875 C12.2402344,7.48046875 12.5195313,7.20117188 12.5195313,6.85546875 C12.5195313,6.50976562 12.2402344,6.23046875 11.8945313,6.23046875 L4.39257812,6.23046875 Z M15.0117188,4.375 C15.0117188,3.33984375 14.171875,2.5 13.1367188,2.5 L11.8867188,2.5 L11.8867188,3.75 L13.1367188,3.75 C13.4824219,3.75 13.7617188,4.02929688 13.7617188,4.375 L13.7617188,9.375 L15.0117188,9.375 L15.0117188,4.375 Z M13.203125,12.7734375 L17.4101562,16.9785156 C17.5273438,17.0957031 17.5273438,17.2890625 17.4101562,17.40625 C17.3359375,17.4804687 17.2539062,17.4941406 17.1953125,17.4941406 C17.1386719,17.4941406 17.0546875,17.4785156 16.9804688,17.40625 L12.7753906,13.2011719 L13.203125,12.7734375 M14.1152344,10.3515625 C13.9550781,10.3515625 13.7949219,10.4121094 13.6738281,10.5351562 L10.578125,13.6289062 C10.3339844,13.8730469 10.3339844,14.2695312 10.578125,14.5136719 C10.7011719,14.6347656 10.859375,14.6972656 11.0195312,14.6972656 C11.1796875,14.6972656 11.3398438,14.6367187 11.4609375,14.5136719 L11.8886719,14.0859375 L16.0957031,18.2910156 C16.3984375,18.59375 16.796875,18.7460937 17.1933594,18.7460937 C17.5917969,18.7460937 17.9882813,18.59375 18.2910156,18.2910156 C18.8984375,17.6855469 18.8984375,16.7011719 18.2910156,16.0957031 L14.0878906,11.8886719 L14.5585938,11.4199219 C14.8027344,11.1757812 14.8027344,10.7792969 14.5585938,10.5351563 C14.4355469,10.4140625 14.2753906,10.3515625 14.1152344,10.3515625 L14.1152344,10.3515625 Z" id="形状"></path>
                    </g>
                </g>
            </g>
        </g>
    </g>
</svg>