<?xml version="1.0" encoding="UTF-8"?>
<svg width="20px" height="20px" viewBox="0 0 20 20" version="1.1" xmlns="http://www.w3.org/2000/svg" xmlns:xlink="http://www.w3.org/1999/xlink">
    <title>眼睛</title>
    <g id="数字卷宗" stroke="none" stroke-width="1" fill="none" fill-rule="evenodd">
        <g id="卷宗制作列表" transform="translate(-1685, -428)" fill="#096DD9" fill-rule="nonzero">
            <g id="编组-10" transform="translate(30, 408)">
                <g id="编组-3" transform="translate(1535, 20)">
                    <g id="眼睛" transform="translate(120, 0)">
                        <rect id="矩形" opacity="0" x="0" y="0" width="20" height="20"></rect>
                        <path d="M10.0625,4.375 C4.0625,4.375 0.4375,10.5 0.4375,10.5 C0.4375,10.5 4.625,16.4375 10.0625,16.4375 C15.5,16.4375 19.6875,10.5 19.6875,10.5 C19.6875,10.5 16.0625,4.375 10.0625,4.375 Z M16.25,12.75 C14.25,14.4375 12.125,15.5 10,15.5 C7.875,15.5 5.75,14.5 3.75,12.75 C3.0625,12.125 2.375,11.5 1.8125,10.8125 C1.6875,10.6875 1.625,10.5625 1.5,10.4375 C1.5625,10.3125 1.6875,10.1875 1.75,10.0625 C2.25,9.375 2.875,8.6875 3.5625,8.0625 C5.5,6.3125 7.625,5.25 10,5.25 C12.375,5.25 14.5,6.3125 16.4375,8.0625 C17.125,8.6875 17.6875,9.375 18.25,10.0625 C18.3125,10.1875 18.4375,10.3125 18.5,10.4375 C18.4375,10.5625 18.3125,10.6875 18.1875,10.8125 C17.625,11.4375 17,12.125 16.25,12.75 Z M10,6.75 C8.125,6.75 6.6875,8.25 6.6875,10.0625 C6.6875,11.9375 8.1875,13.375 10,13.375 C11.875,13.375 13.3125,11.875 13.3125,10.0625 C13.3125,8.25 11.8125,6.75 10,6.75 Z M10,12.5 C8.6875,12.5 7.625,11.4375 7.625,10.125 C7.625,8.8125 8.6875,7.75 10,7.75 C11.3125,7.75 12.375,8.8125 12.375,10.125 C12.375,11.375 11.3125,12.5 10,12.5 Z" id="形状"></path>
                    </g>
                </g>
            </g>
        </g>
    </g>
</svg>