<?xml version="1.0" encoding="UTF-8"?>
<svg width="20px" height="20px" viewBox="0 0 20 20" version="1.1" xmlns="http://www.w3.org/2000/svg" xmlns:xlink="http://www.w3.org/1999/xlink">
    <title>绑定</title>
    <g id="数字卷宗" stroke="none" stroke-width="1" fill="none" fill-rule="evenodd">
        <g id="卷宗制作列表" transform="translate(-1565, -428)" fill="#096DD9" fill-rule="nonzero">
            <g id="编组-10" transform="translate(30, 408)">
                <g id="绑定" transform="translate(1535, 20)">
                    <rect id="矩形" opacity="0" x="0" y="0" width="20" height="20"></rect>
                    <path d="M14.1152344,12.7890625 L13.2324219,11.90625 L15.96875,9.16992187 C17.3828125,7.75390625 17.3828125,5.44921875 15.96875,4.03515625 C14.5527344,2.61914062 12.25,2.61914062 10.8339844,4.03515625 L8.09765625,6.76953125 L7.21484375,5.88671875 L9.95117188,3.15039062 C11.8535156,1.24609375 14.9511719,1.24804688 16.8535156,3.15039062 C18.7558594,5.05273437 18.7558594,8.15039062 16.8535156,10.0527344 L14.1152344,12.7890625 Z M6.60351563,18.2792969 C5.29882812,18.2792969 4.07421875,17.7714844 3.15234375,16.8496094 C1.25,14.9472656 1.25,11.8496094 3.15234375,9.94726562 L5.88867188,7.2109375 L6.77148438,8.09375 L4.03515625,10.8320312 C2.61914063,12.2480469 2.61914063,14.5507812 4.03515625,15.9667969 C4.72070312,16.6523437 5.6328125,17.03125 6.60351563,17.03125 C7.57421875,17.03125 8.484375,16.6542969 9.16992188,15.9667969 L11.90625,13.2304687 L12.7890625,14.1132812 L10.0546875,16.8496094 C9.1328125,17.7714844 7.90625,18.2792969 6.60351563,18.2792969 Z M6.46464844,12.6538867 L12.6517578,6.46675781 L13.5356445,7.350625 L7.34851563,13.5377344 L6.46464844,12.6538867 Z" id="形状"></path>
                </g>
            </g>
        </g>
    </g>
</svg>