<?xml version="1.0" encoding="UTF-8"?>
<svg width="20px" height="20px" viewBox="0 0 20 20" version="1.1" xmlns="http://www.w3.org/2000/svg" xmlns:xlink="http://www.w3.org/1999/xlink">
    <title>删除</title>
    <g id="数字卷宗" stroke="none" stroke-width="1" fill="none" fill-rule="evenodd">
        <g id="卷宗制作列表" transform="translate(-1765, -428)" fill="#096DD9" fill-rule="nonzero">
            <g id="编组-10" transform="translate(30, 408)">
                <g id="编组-3" transform="translate(1535, 20)">
                    <g id="删除" transform="translate(200, 0)">
                        <rect id="矩形" opacity="0" x="0" y="0" width="20" height="20"></rect>
                        <path d="M18.2871094,5.46875 L1.72070312,5.46875 C1.4609375,5.46875 1.25195312,5.25976563 1.25195312,5 C1.25195312,4.74023438 1.4609375,4.53125 1.72070312,4.53125 L18.2871094,4.53125 C18.546875,4.53125 18.7558594,4.74023438 18.7558594,5 C18.7558594,5.25976563 18.546875,5.46875 18.2871094,5.46875 Z M15.3164062,5.94140625 L15.3164062,17.1914062 C15.3164062,17.5351562 15.0351563,17.8164062 14.6914062,17.8164062 L5.31640625,17.8164062 C4.97265625,17.8164062 4.69140625,17.5351562 4.69140625,17.1914062 L4.69140625,5.94140625 L15.3164062,5.94140625 M16.2539062,5.00390625 L3.75390625,5.00390625 L3.75390625,17.1914062 C3.75390625,18.0546875 4.453125,18.7539062 5.31640625,18.7539062 L14.6914062,18.7539062 C15.5546875,18.7539062 16.2539062,18.0546875 16.2539062,17.1914062 L16.2539062,5.00390625 Z M8.33789062,2.875 C8.77734375,2.43554688 9.36328125,2.19140625 9.98632812,2.19140625 C10.609375,2.19140625 11.1953125,2.43359375 11.6347656,2.875 C12.0742187,3.31445312 12.3183594,3.90039062 12.3183594,4.5234375 L13.2558594,4.5234375 C13.2558594,2.71875 11.7929687,1.25390625 9.98632812,1.25390625 C8.1796875,1.25390625 6.71875,2.71875 6.71875,4.5234375 L7.65625,4.5234375 C7.65625,3.90039062 7.8984375,3.31445312 8.33789062,2.875 L8.33789062,2.875 Z M7.97070312,14.6914063 C7.7109375,14.6914063 7.50195312,14.4824219 7.50195312,14.2226563 L7.50195312,9.22265625 C7.50195312,8.96289063 7.7109375,8.75390625 7.97070312,8.75390625 C8.23046875,8.75390625 8.43945312,8.96289063 8.43945312,9.22265625 L8.43945312,14.2226563 C8.43945312,14.4824219 8.23046875,14.6914063 7.97070312,14.6914063 Z M12.0332031,14.6914063 C11.7734375,14.6914063 11.5644531,14.4824219 11.5644531,14.2226563 L11.5644531,9.22265625 C11.5644531,8.96289063 11.7734375,8.75390625 12.0332031,8.75390625 C12.2929688,8.75390625 12.5019531,8.96289063 12.5019531,9.22265625 L12.5019531,14.2226563 C12.5019531,14.4824219 12.2929688,14.6914063 12.0332031,14.6914063 Z" id="形状"></path>
                    </g>
                </g>
            </g>
        </g>
    </g>
</svg>