<?xml version="1.0" encoding="UTF-8"?>
<svg width="20px" height="20px" viewBox="0 0 20 20" version="1.1" xmlns="http://www.w3.org/2000/svg" xmlns:xlink="http://www.w3.org/1999/xlink">
    <title>锁定</title>
    <g id="数字卷宗" stroke="none" stroke-width="1" fill="none" fill-rule="evenodd">
        <g id="卷宗制作列表" transform="translate(-1725, -428)" fill="#096DD9" fill-rule="nonzero">
            <g id="编组-10" transform="translate(30, 408)">
                <g id="编组-3" transform="translate(1535, 20)">
                    <g id="锁定" transform="translate(160, 0)">
                        <rect id="矩形" opacity="0" x="0" y="0" width="20" height="20"></rect>
                        <path d="M5.38574219,6.26464844 L5.38574219,6.15478516 L5.38574219,6.26464844 C5.38574219,3.40820312 7.47314453,1.2109375 10,1.2109375 C12.4169922,1.2109375 14.6142578,3.29833984 14.6142578,5.71533203 L14.6142578,6.26464844 L16.262207,6.26464844 C17.3608398,6.26464844 18.2397461,7.25341797 18.2397461,8.35205078 L18.2397461,16.7016602 C18.2397461,17.9101562 17.3608398,18.7890625 16.262207,18.7890625 L3.73779297,18.7890625 C2.63916016,18.7890625 1.76025391,17.800293 1.76025391,16.7016602 L1.76025391,8.35205078 C1.76025391,7.14355469 2.63916016,6.26464844 3.73779297,6.26464844 L5.38574219,6.26464844 Z M6.484375,6.26464844 L13.515625,6.26464844 L13.515625,5.71533203 C13.515625,4.17724609 12.0874023,2.30957031 10,2.30957031 C8.02246094,2.30957031 6.484375,4.06738281 6.484375,6.26464844 L6.484375,6.15478516 L6.484375,6.26464844 Z M3.73779297,7.36328125 C3.29833984,7.36328125 2.85888672,7.80273438 2.85888672,8.35205078 L2.85888672,16.7016602 C2.85888672,17.2509766 3.29833984,17.6904297 3.73779297,17.6904297 L16.262207,17.6904297 C16.7016602,17.6904297 17.1411133,17.2509766 17.1411133,16.7016602 L17.1411133,8.35205078 C17.1411133,7.80273438 16.7016602,7.36328125 16.262207,7.36328125 L3.73779297,7.36328125 Z M10,15.0537109 C8.68164062,15.0537109 7.47314453,13.9550781 7.47314453,12.6367188 C7.47314453,11.3183594 8.57177734,10.2197266 10,10.2197266 C11.3183594,10.2197266 12.5268555,11.3183594 12.5268555,12.6367188 C12.5268555,13.9550781 11.3183594,15.0537109 10,15.0537109 Z M10,11.2084961 C9.23095703,11.2084961 8.57177734,11.8676758 8.57177734,12.5268555 C8.57177734,13.1860352 9.23095703,13.8452148 10,13.8452148 C10.769043,13.8452148 11.4282227,13.1860352 11.4282227,12.5268555 C11.4282227,11.8676758 10.769043,11.2084961 10,11.2084961 Z" id="形状"></path>
                    </g>
                </g>
            </g>
        </g>
    </g>
</svg>