<?xml version="1.0" encoding="UTF-8"?>
<svg width="20px" height="20px" viewBox="0 0 20 20" version="1.1" xmlns="http://www.w3.org/2000/svg" xmlns:xlink="http://www.w3.org/1999/xlink">
    <title>工具箱</title>
    <g id="辅助办案" stroke="none" stroke-width="1" fill="none" fill-rule="evenodd">
        <g id="阅卷笔录-大纲" transform="translate(-1804, -15)" fill-rule="nonzero">
            <g id="工具箱" transform="translate(1804, 15)">
                <rect id="矩形" fill="#000000" opacity="0" x="0" y="0" width="20" height="20"></rect>
                <path d="M19.5491602,3.95833984 L14.0529297,3.95833984 L14.0529297,1.52791016 C14.0529297,1.29791016 13.8671094,1.11125 13.6362695,1.11125 L6.36375,1.11125 C6.13375,1.11125 5.94708984,1.29791016 5.94708984,1.52791016 L5.94708984,3.95833984 L0.45125,3.95833984 C0.22125,3.95833984 0.0345898437,4.145 0.0345898437,4.375 L0.0345898437,17.41125 C0.0345898437,17.6416602 0.22125,17.8279102 0.45125,17.8279102 L19.5491602,17.8279102 C19.7795898,17.8279102 19.9658398,17.6416602 19.9658398,17.41125 L19.9658398,4.375 C19.9658398,4.145 19.7795898,3.95833984 19.5491602,3.95833984 Z M6.78041016,1.94458984 L13.2195898,1.94458984 L13.2195898,3.95833984 L6.78041016,3.95833984 L6.78041016,1.94458984 Z M6.36375,4.79166016 L19.1320898,4.79166016 L19.1320898,10 L11.7604102,10 L11.7604102,8.02083984 C11.7604102,7.79083984 11.5745898,7.60416016 11.34375,7.60416016 L8.6575,7.60416016 C8.4275,7.60416016 8.24083984,7.79083984 8.24083984,8.02083984 L8.24083984,10 L0.867910156,10 L0.867910156,4.79166016 L6.36375,4.79166016 Z M9.07332031,8.4375 L10.9270898,8.4375 L10.9270898,12.3958398 L9.07333984,12.3958398 L9.07333984,8.4375 L9.07332031,8.4375 Z M0.867910156,16.9945898 L0.867910156,10.8333398 L8.24001953,10.8333398 L8.24001953,12.8125 C8.24001953,13.0429102 8.42667969,13.2291602 8.65667969,13.2291602 L11.34375,13.2291602 C11.5741602,13.2291602 11.7604102,13.0429102 11.7604102,12.8125 L11.7604102,10.8333398 L19.1320898,10.8333398 L19.1320898,16.9945898 L0.867910156,16.9945898 L0.867910156,16.9945898 Z" id="形状" fill="#FFFFFF"></path>
            </g>
        </g>
    </g>
</svg>