<?xml version="1.0" encoding="UTF-8"?>
<svg width="16px" height="16px" viewBox="0 0 16 16" version="1.1" xmlns="http://www.w3.org/2000/svg" xmlns:xlink="http://www.w3.org/1999/xlink">
    <title>放大</title>
    <g id="辅助办案" stroke="none" stroke-width="1" fill="none" fill-rule="evenodd">
        <g id="阅卷笔录-大纲" transform="translate(-750, -115)" fill-rule="nonzero">
            <g id="编组-23" transform="translate(20, 70)">
                <g id="编组-14" transform="translate(0, 33)">
                    <g id="放大" transform="translate(730, 12)">
                        <rect id="矩形" fill="#000000" opacity="0" x="0" y="0" width="16" height="16"></rect>
                        <path d="M14.671875,12.49375 L12.165625,10.184375 C12.6515625,9.3203125 12.928125,8.325 12.928125,7.2640625 C12.928125,3.9671875 10.25625,1.2953125 6.959375,1.2953125 C3.6625,1.2953125 0.990625,3.9671875 0.990625,7.2640625 C0.990625,10.5609375 3.6625,13.2328125 6.959375,13.2328125 C8.196875,13.2328125 9.346875,12.85625 10.3,12.2109375 L12.80625,14.51875 C12.9953125,14.6921875 13.234375,14.778125 13.471875,14.778125 C13.7375,14.778125 14.0015625,14.671875 14.1953125,14.4609375 L14.7296875,13.88125 C15.096875,13.4828125 15.071875,12.8609375 14.671875,12.49375 Z M1.6015625,7.2640625 C1.6015625,4.3109375 4.0046875,1.9078125 6.9578125,1.9078125 C9.9109375,1.9078125 12.3140625,4.3109375 12.3140625,7.2640625 C12.3140625,10.2171875 9.9109375,12.6203125 6.9578125,12.6203125 C4.0046875,12.6203125 1.6015625,10.2171875 1.6015625,7.2640625 Z M7.7234375,3.4375 L6.2546875,3.4375 L6.2546875,6.4375 L3.1328125,6.4375 L3.1328125,7.90625 L6.2546875,7.90625 L6.2546875,10.90625 L7.7234375,10.90625 L7.7234375,7.90625 L10.6015625,7.90625 L10.6015625,6.4375 L7.7234375,6.4375 L7.7234375,3.4375 Z" id="形状" fill="#333333"></path>
                    </g>
                </g>
            </g>
        </g>
    </g>
</svg>