<?xml version="1.0" encoding="UTF-8"?>
<svg width="16px" height="16px" viewBox="0 0 16 16" version="1.1" xmlns="http://www.w3.org/2000/svg" xmlns:xlink="http://www.w3.org/1999/xlink">
    <title>缩小</title>
    <g id="辅助办案" stroke="none" stroke-width="1" fill="none" fill-rule="evenodd">
        <g id="阅卷笔录-大纲" transform="translate(-786, -115)" fill-rule="nonzero">
            <g id="编组-23" transform="translate(20, 70)">
                <g id="编组-14" transform="translate(0, 33)">
                    <g id="编组-2" transform="translate(730, 12)">
                        <g id="缩小" transform="translate(36, 0)">
                            <rect id="矩形" fill="#000000" opacity="0" x="0" y="0" width="16" height="16"></rect>
                            <path d="M14.7515625,12.4234375 L12.2140625,10.0875 C12.7046875,9.2140625 12.9859375,8.20625 12.9859375,7.13125 C12.9859375,3.7953125 10.28125,1.090625 6.9453125,1.090625 C3.609375,1.0921875 0.9046875,3.7953125 0.9046875,7.1328125 C0.9046875,10.46875 3.609375,13.171875 6.9453125,13.171875 C8.1984375,13.171875 9.3609375,12.790625 10.3265625,12.1375 L12.8640625,14.4734375 C13.0546875,14.65 13.296875,14.7359375 13.5375,14.7359375 C13.80625,14.7359375 14.0734375,14.628125 14.2703125,14.4140625 L14.8109375,13.828125 C15.18125,13.4265625 15.15625,12.796875 14.7515625,12.4234375 Z M1.525,7.1328125 C1.525,4.14375 3.95625,1.7125 6.9453125,1.7125 C9.934375,1.7125 12.365625,4.14375 12.365625,7.1328125 C12.365625,10.121875 9.934375,12.553125 6.9453125,12.553125 C3.95625,12.553125 1.525,10.121875 1.525,7.1328125 Z M3.0734375,6.2953125 L10.63125,6.2953125 L10.63125,7.7828125 L3.0734375,7.7828125 L3.0734375,6.2953125 Z" id="形状" fill="#333333"></path>
                        </g>
                    </g>
                </g>
            </g>
        </g>
    </g>
</svg>