<?xml version="1.0" encoding="UTF-8"?>
<svg width="16px" height="16px" viewBox="0 0 16 16" version="1.1" xmlns="http://www.w3.org/2000/svg" xmlns:xlink="http://www.w3.org/1999/xlink">
    <title>删除</title>
    <g id="数字卷宗" stroke="none" stroke-width="1" fill="none" fill-rule="evenodd">
        <g id="删除" fill="#4497F2" fill-rule="nonzero">
            <rect id="矩形" opacity="0" x="0" y="0" width="16" height="16"></rect>
            <path d="M14.5025,2.25 L11.5,2.25 L11.5,1 C11.5,0.723857625 11.2761424,0.5 11,0.5 L5,0.5 C4.72385763,0.5 4.5,0.723857625 4.5,1 L4.5,2.25 L1.4975,2.25 C1.22135763,2.25 0.9975,2.47385763 0.9975,2.75 C0.9975,3.02614237 1.22135763,3.25 1.4975,3.25 L2.025,3.25 L3.2425,14.1665 C3.32729378,14.9256874 3.96909201,15.5 4.733,15.5 L11.2665,15.5 C12.030512,15.5 12.6724683,14.9257654 12.7575,14.1665 L13.975,3.25 L14.502,3.25 C14.6806328,3.25008932 14.845744,3.15487239 14.9351377,3.00021651 C15.0245314,2.84556063 15.0246267,2.6549617 14.9353877,2.50021651 C14.8461487,2.34547131 14.6811328,2.25008932 14.5025,2.25 Z M5.5,1.5 L10.5,1.5 L10.5,2.25 L5.5,2.25 L5.5,1.5 Z M11.764,14.0555 C11.7357283,14.3086257 11.5216997,14.5 11.267,14.5 L4.733,14.5 C4.47830034,14.5 4.26427166,14.3086257 4.236,14.0555 L3.031,3.25 L12.969,3.25 L11.764,14.0555 L11.764,14.0555 Z M9.5,12.827 C9.77614237,12.827 10,12.6031424 10,12.327 L10,4.986 C10,4.70985763 9.77614237,4.486 9.5,4.486 C9.22385763,4.486 9,4.70985763 9,4.986 L9,12.327 C9,12.6031424 9.22385763,12.827 9.5,12.827 Z M6.75,12.827 C7.02614237,12.827 7.25,12.6031424 7.25,12.327 L7.25,4.986 C7.25,4.70985763 7.02614237,4.486 6.75,4.486 C6.47385763,4.486 6.25,4.70985763 6.25,4.986 L6.25,12.327 C6.25,12.6031424 6.47385763,12.827 6.75,12.827 Z" id="形状"></path>
        </g>
    </g>
</svg>