<?xml version="1.0" encoding="UTF-8"?>
<svg width="16px" height="16px" viewBox="0 0 16 16" version="1.1" xmlns="http://www.w3.org/2000/svg" xmlns:xlink="http://www.w3.org/1999/xlink">
    <title>插入</title>
    <g id="数字卷宗" stroke="none" stroke-width="1" fill="none" fill-rule="evenodd">
        <g id="插入" fill="#4497F2" fill-rule="nonzero">
            <rect id="矩形" opacity="0" x="0" y="0" width="16" height="16"></rect>
            <path d="M13.7160469,4.73278125 L10.644,1.35364062 C10.4391563,1.04635937 10.0296406,0.841609375 9.51759375,0.841609375 L3.8855625,0.841609375 C2.75915625,0.841609375 1.83759375,1.76317187 1.83759375,2.8895625 L1.83759375,13.1295625 C1.83759375,14.2559687 2.75915625,15.177625 3.8855625,15.177625 L12.0775938,15.177625 C13.204,15.177625 14.1255625,14.2559844 14.1255625,13.1295625 L14.1255625,5.75684375 C14.1255625,5.4495625 14.0232187,5.04004687 13.7160312,4.73278125 L13.7160469,4.73278125 Z M13.1015625,13.1295625 C13.1015625,13.7440156 12.6919688,14.1536406 12.0775781,14.1536406 L3.88554688,14.1536406 C3.27117188,14.1536406 2.8615625,13.7440156 2.8615625,13.1295625 L2.8615625,2.8895625 C2.8615625,2.2751875 3.2711875,1.86557813 3.88554688,1.86557813 L9.62,1.86557813 L9.62,4.93760938 C9.62,5.04004688 9.72234375,5.24479688 9.82476562,5.24479688 L13.1015625,6.67839063 L13.1015625,13.1295625 Z M13.1015625,5.8591875 L10.4391406,4.73278125 L10.4391406,2.582375 L12.9991406,5.4495625 C12.9991406,5.552 13.1015625,5.65440625 13.1015625,5.8591875 L13.1015625,5.8591875 Z" id="形状"></path>
            <path d="M6.34321875,8.112 L6.75284375,7.702375 C6.8551875,7.60003125 6.8551875,7.29278125 6.75284375,7.19042188 C6.65042188,7.088 6.34321875,7.088 6.2408125,7.19042188 L5.2168125,8.21442187 C5.11440625,8.31684375 5.01196875,8.4191875 5.01196875,8.52160937 C5.01196875,8.62403125 5.01196875,8.72635937 5.11440625,8.82878125 L6.138375,9.85278125 C6.24079688,9.95520312 6.34321875,9.95520312 6.4455625,9.95520312 C6.548,9.95520312 6.65040625,9.95520312 6.75284375,9.85278125 C6.8551875,9.75042187 6.8551875,9.44315625 6.75284375,9.3408125 L6.34321875,8.93120312 L9.51759375,8.93120312 C9.62001562,8.93120312 9.72235937,8.93120312 9.82478125,8.82878125 L10.8487812,7.80479688 C10.9512031,7.702375 10.9512031,7.39520313 10.8487812,7.29276563 C10.7464219,7.19042188 10.4391562,7.19042188 10.3368125,7.29276563 L9.31284375,8.112 L6.34321875,8.112 L6.34321875,8.112 Z" id="路径"></path>
        </g>
    </g>
</svg>