<?xml version="1.0" encoding="UTF-8"?>
<svg width="16px" height="16px" viewBox="0 0 16 16" version="1.1" xmlns="http://www.w3.org/2000/svg" xmlns:xlink="http://www.w3.org/1999/xlink">
    <title>文件设置</title>
    <g id="数字卷宗" stroke="none" stroke-width="1" fill="none" fill-rule="evenodd">
        <g id="文件设置" fill="#4497F2" fill-rule="nonzero">
            <rect id="矩形" opacity="0" x="0" y="0" width="16" height="16"></rect>
            <path d="M9.3125,14.49375 L8.98125,13.921875 L3.39375,13.921875 C2.9125,13.921875 2.521875,13.53125 2.521875,13.05 L2.521875,2.803125 C2.521875,2.321875 2.9125,1.93125 3.39375,1.93125 L9.528125,1.93125 L9.528125,4.225 C9.528125,4.484375 9.7375,4.69375 9.996875,4.69375 L12.2875,4.69375 L12.2875,7.6875 L13.225,7.6875 L13.225,4.215625 C13.225,4.203125 13.225,4.19375 13.221875,4.18125 L13.221875,4.16875 C13.221875,4.15625 13.21875,4.14375 13.215625,4.128125 C13.215625,4.125 13.2125,4.11875 13.2125,4.115625 C13.209375,4.10625 13.209375,4.096875 13.20625,4.0875 C13.203125,4.08125 13.203125,4.075 13.2,4.071875 C13.196875,4.0625 13.19375,4.05625 13.190625,4.05 C13.1875,4.04375 13.1875,4.040625 13.184375,4.034375 C13.178125,4.021875 13.175,4.0125 13.16875,4 C13.165625,3.996875 13.165625,3.99375 13.1625,3.990625 C13.15625,3.98125 13.153125,3.975 13.146875,3.965625 C13.14375,3.9625 13.140625,3.95625 13.1375,3.953125 C13.13125,3.946875 13.125,3.9375 13.121875,3.93125 L13.1125,3.921875 C13.103125,3.9125 13.09375,3.903125 13.084375,3.890625 L10.35,1.15625 C10.2625,1.05625 10.1375,0.990625 9.99375,0.990625 L3.39375,0.990625 C2.396875,0.990625 1.584375,1.803125 1.584375,2.8 L1.584375,13.046875 C1.584375,14.04375 2.396875,14.85625 3.39375,14.85625 L9.628125,14.85625 C9.503125,14.759375 9.396875,14.6375 9.3125,14.49375 Z M10.465625,2.596875 L11.625,3.75625 L10.465625,3.75625 L10.465625,2.596875 Z M12.7875,9.2875 C12.959375,9.2875 13.11875,9.378125 13.20625,9.528125 L14.153125,11.16875 C14.240625,11.31875 14.240625,11.503125 14.153125,11.653125 L13.20625,13.29375 C13.1195065,13.442836 12.9599849,13.5345013 12.7875,13.5343751 L10.89375,13.5343751 C10.721875,13.5343751 10.5625,13.44375 10.475,13.29375 L9.528125,11.653125 C9.440625,11.503125 9.440625,11.31875 9.528125,11.16875 L10.475,9.528125 C10.5625,9.378125 10.721875,9.2875 10.89375,9.2875 L12.7875,9.2875 M12.7875,8.35 L10.89375,8.35 C10.3875,8.35 9.915625,8.621875 9.6625,9.059375 L8.715625,10.7 C8.4625,11.1375 8.4625,11.68125 8.715625,12.121875 L9.6625,13.7625 C9.915625,14.2 10.3875,14.471875 10.89375,14.471875 L12.7875,14.471875 C13.29375,14.471875 13.765625,14.2 14.01875,13.7625 L14.965625,12.121875 C15.21875,11.684375 15.21875,11.140625 14.965625,10.7 L14.015625,9.0625 C13.765625,8.625 13.29375,8.35 12.7875,8.35 L12.7875,8.35 Z M11.840625,12.703125 C11.128125,12.703125 10.55,12.125 10.55,11.4125 C10.55,10.7 11.128125,10.121875 11.840625,10.121875 C12.553125,10.121875 13.13125,10.7 13.13125,11.4125 C13.13125,12.125 12.55,12.703125 11.840625,12.703125 Z M11.840625,11.0625 C11.646875,11.0625 11.4875,11.221875 11.4875,11.415625 C11.4875,11.609375 11.646875,11.76875 11.840625,11.76875 C12.034375,11.76875 12.19375,11.609375 12.19375,11.415625 C12.19375,11.221875 12.034375,11.0625 11.840625,11.0625 Z M6.625,4.81875 L3.91875,4.81875 C3.659375,4.81875 3.45,4.609375 3.45,4.35 C3.45,4.090625 3.659375,3.88125 3.91875,3.88125 L6.625,3.88125 C6.884375,3.88125 7.09375,4.090625 7.09375,4.35 C7.09375,4.609375 6.884375,4.81875 6.625,4.81875 Z M6.625,9.846875 L3.91875,9.846875 C3.659375,9.846875 3.45,9.6375 3.45,9.378125 C3.45,9.11875 3.659375,8.909375 3.91875,8.909375 L6.625,8.909375 C6.884375,8.909375 7.09375,9.11875 7.09375,9.378125 C7.09375,9.6375 6.884375,9.846875 6.625,9.846875 Z M10.359375,7.33125 L3.921875,7.33125 C3.6625,7.33125 3.453125,7.121875 3.453125,6.8625 C3.453125,6.603125 3.6625,6.39375 3.921875,6.39375 L10.359375,6.39375 C10.61875,6.39375 10.828125,6.603125 10.828125,6.8625 C10.828125,7.121875 10.61875,7.33125 10.359375,7.33125 Z" id="形状"></path>
        </g>
    </g>
</svg>