<?xml version="1.0" encoding="UTF-8"?>
<svg width="16px" height="16px" viewBox="0 0 16 16" version="1.1" xmlns="http://www.w3.org/2000/svg" xmlns:xlink="http://www.w3.org/1999/xlink">
    <title>旋转 2</title>
    <g id="数字卷宗" stroke="none" stroke-width="1" fill="none" fill-rule="evenodd">
        <g id="旋转" transform="translate(8, 8) scale(-1, 1) translate(-8, -8)" fill="#096DD9" fill-rule="nonzero">
            <rect id="矩形" opacity="0" x="0" y="0" width="16" height="16"></rect>
            <path d="M1,8.384375 C1.009375,8.08125 1.0390625,7.778125 1.0859375,7.478125 L3.3203125,7.753125 C3.3046875,7.9640625 3.3015625,8.175 3.3125,8.384375 L1,8.384375 Z M1.2765625,6.6125 C1.4375,6.0453125 1.66875,5.4984375 1.959375,4.990625 L3.7921875,5.9609375 C3.6140625,6.3390625 3.484375,6.7359375 3.403125,7.140625 L1.2765625,6.6125 L1.2765625,6.6125 Z M2.4390625,4.259375 C2.7875,3.7921875 3.190625,3.3703125 3.6359375,3.003125 L4.8921875,4.425 C4.5859375,4.721875 4.31875,5.053125 4.0953125,5.409375 L2.4390625,4.259375 Z M4.334375,2.4953125 C4.81875,2.1859375 5.3390625,1.9359375 5.8796875,1.7515625 L6.4875,3.359375 C6.09204835,3.52924647 5.71894549,3.74702099 5.3765625,4.0078125 L4.334375,2.4953125 L4.334375,2.4953125 Z M6.7046875,1.528125 C7.2609375,1.4125 7.828125,1.365625 8.3890625,1.3859375 L8.3890625,2.9265625 C7.95,2.946875 7.515625,3.0171875 7.1,3.1390625 L6.7046875,1.528125 Z M9.2265625,1.465625 C9.78125,1.5515625 10.3234375,1.70625 10.8359375,1.921875 L10.3515625,3.196875 C9.928125,3.0578125 9.4890625,2.9703125 9.0484375,2.9375 L9.2265625,1.465625 Z M11.5828125,2.290625 C12.0640625,2.565625 12.509375,2.8984375 12.90625,3.2765625 L12.1203125,4.1640625 C11.7671875,3.878125 11.3828125,3.6359375 10.9765625,3.4453125 L11.5828125,2.290625 L11.5828125,2.290625 Z M13.465625,3.878125 C13.8140625,4.3 14.109375,4.7609375 14.34375,5.25 L13.453125,5.71875 C13.2203125,5.3203125 12.940625,4.953125 12.6234375,4.625 L13.465625,3.878125 Z M14.6515625,6 C14.825,6.5109375 14.9359375,7.0421875 14.9796875,7.575 L14.1546875,7.675 C14.078125,7.2125 13.946875,6.7625 13.7640625,6.3375 L14.6515625,6 Z M15,8.3734375 C14.98125,8.9046875 14.8984375,9.4328125 14.7546875,9.940625 L14.1203125,9.7859375 C14.2140625,9.3203125 14.2484375,8.8453125 14.228125,8.375 L15,8.3734375 L15,8.3734375 Z M14.49375,10.6875 C14.290625,11.171875 14.028125,11.6296875 13.7171875,12.046875 L13.325,11.778125 C13.58125,11.3703125 13.7875,10.9328125 13.9375,10.4796875 L14.49375,10.6875 L14.49375,10.6875 Z M13.2140625,12.640625 C12.85625,13.015625 12.45625,13.346875 12.0234375,13.6234375 L11.853125,13.3796875 C12.24375,13.084375 12.5953125,12.7421875 12.9015625,12.365625 L13.2140625,12.640625 Z M11.353125,13.9984375 C10.8921875,14.2203125 10.4078125,14.384375 9.9109375,14.4875 L9.88125,14.371875 C10.3578125,14.2328125 10.815625,14.0359375 11.240625,13.7875 L11.353125,13.9984375 L11.353125,13.9984375 Z M9.1578125,14.6106758 C8.9,14.6376353 8.6421875,14.6434123 8.384375,14.6318582 C8.640625,14.6203042 8.896875,14.5875676 9.15,14.5375 L9.1578125,14.6106758 Z" id="形状"></path>
        </g>
    </g>
</svg>