<?xml version="1.0" encoding="UTF-8"?>
<svg width="16px" height="16px" viewBox="0 0 16 16" version="1.1" xmlns="http://www.w3.org/2000/svg" xmlns:xlink="http://www.w3.org/1999/xlink">
    <title>替换</title>
    <g id="数字卷宗" stroke="none" stroke-width="1" fill="none" fill-rule="evenodd">
        <g id="替换" fill="#4497F2" fill-rule="nonzero">
            <rect id="矩形" opacity="0" x="0" y="0" width="16" height="16"></rect>
            <path d="M13.848,1.248 L11.632,1.248 L11.632,0.768 C11.632,0.344 11.288,0 10.864,0 L5.712,0 C5.288,0 4.944,0.344 4.944,0.768 L4.944,1.248 L2.72,1.248 C2,1.248 1.416,1.832 1.416,2.552 L1.416,14.656 C1.416,15.376 2,15.96 2.72,15.96 L13.84,15.96 C14.56,15.96 15.1440812,15.376 15.1440812,14.656 L15.1440812,2.552 C15.152,1.832 14.568,1.248 13.848,1.248 Z M6.064,1.12 L10.504,1.12 L10.504,2.4 L6.064,2.4 L6.064,1.12 Z M14.032,14.656 C14.032,14.76 13.952,14.84 13.848,14.84 L2.72,14.84 C2.616,14.84 2.536,14.76 2.536,14.656 L2.536,2.552 C2.536,2.448 2.616,2.368 2.72,2.368 L4.936,2.368 L4.936,2.752 C4.936,3.176 5.28,3.52 5.704,3.52 L10.848,3.52 C11.272,3.52 11.616,3.176 11.616,2.752 L11.616,2.368 L13.832,2.368 C13.936,2.368 14.016,2.448 14.016,2.552 L14.032,14.656 Z M8.264,5.328 C10.312,5.328 11.976,6.992 11.976,9.04 C11.976,9.12 11.968,9.2 11.968,9.28 L11.312,9.24 C11.32,9.176 11.32,9.112 11.32,9.048 C11.32,7.36 9.952,5.992 8.264,5.992 C7.48,5.992 6.728,6.288 6.16,6.832 L5.712,6.36 C6.408,5.688 7.312,5.328 8.264,5.328 L8.264,5.328 Z M4.56,9.04 L5.216,9.04 C5.216,9.144 5.224,9.256 5.232,9.36 C5.392,10.92 6.704,12.096 8.272,12.096 C8.888,12.096 9.472,11.912 9.984,11.576 L10.344,12.12 C9.736,12.536 9.016,12.752 8.272,12.752 C6.368,12.752 4.776,11.328 4.584,9.432 C4.56,9.304 4.56,9.168 4.56,9.04 L4.56,9.04 Z M11.648,11.056 L12.672,9.232 C12.696,9.184 12.664,9.128 12.608,9.128 L10.568,9.128 C10.512,9.128 10.48,9.184 10.504,9.232 L11.52,11.056 C11.56,11.104 11.624,11.104 11.648,11.056 L11.648,11.056 Z M5.008,7.544 L6.032,9.368 C6.056,9.416 6.024,9.472 5.968,9.472 L3.928,9.472 C3.872,9.472 3.84,9.416 3.864,9.368 L4.88,7.544 C4.904,7.504 4.976,7.504 5.008,7.544 Z M10.464,11.856 C10.464,11.672 10.32,11.528 10.136,11.528 C9.952,11.528 9.808,11.672 9.808,11.856 C9.808,12.04 9.952,12.184 10.136,12.184 C10.32,12.184 10.464,12.04 10.464,11.856 Z M6.296,6.552 C6.296,6.368 6.152,6.224 5.968,6.224 C5.784,6.224 5.64,6.368 5.64,6.552 C5.64,6.736 5.784,6.88 5.968,6.88 C6.152,6.88 6.296,6.736 6.296,6.552 Z" id="形状"></path>
        </g>
    </g>
</svg>