<?xml version="1.0" encoding="UTF-8"?>
<svg width="16px" height="16px" viewBox="0 0 16 16" version="1.1" xmlns="http://www.w3.org/2000/svg" xmlns:xlink="http://www.w3.org/1999/xlink">
    <title>移动</title>
    <g id="数字卷宗" stroke="none" stroke-width="1" fill="none" fill-rule="evenodd">
        <g id="移动" fill="#4497F2" fill-rule="nonzero">
            <rect id="矩形" opacity="0" x="0" y="0" width="16" height="16"></rect>
            <path d="M9.9700868,2 C10.9580868,2 10.9559201,4.16666667 12.3545035,4.16666667 L12.9806701,4.16666667 C14.0954201,4.16666667 15.0000035,5.21858333 15.0000035,6.33333333 L15.0000035,12.98175 C15.0000035,14.0965 14.0954201,15 12.9795868,15 L4.01825347,15 C2.9045868,15 2.00000347,14.0965 2.00000347,12.98175 L2.00000347,11.75 L3.0833368,11.75 L3.0833368,12.98175 C3.0833368,13.4963333 3.50367013,13.9166667 4.01825347,13.9166667 L12.9806701,13.9166667 C13.4963368,13.9166667 13.9166701,13.4963333 13.9166701,12.98175 L13.9166701,6.33333333 C13.9166701,5.7765 13.4616701,5.25 12.9806701,5.25 L12.3545035,5.25 C10.9494201,5.25 10.3416701,4.12875 9.97875347,3.45925 C9.91700347,3.34333333 9.83142013,3.18733333 9.76425347,3.08333333 L4.01825347,3.08333333 C3.50367013,3.08333333 3.0833368,3.50366667 3.0833368,4.01933333 L3.0833368,6.33333333 L2.00000347,6.33333333 L2.00000347,4.01933333 C2.00000347,2.90458333 2.9045868,2 4.01825347,2 Z M6.71632298,6.20338425 C6.93864393,6.0033728 7.29991548,5.91182527 7.52223644,6.11183672 L9.83326275,8.17862174 C9.8432672,8.18757748 9.84771361,8.20150862 9.85660645,8.21145944 C9.89551262,8.2522578 9.93330718,8.29504632 9.95665088,8.34579549 C9.97999458,8.40152007 9.99222223,8.43137253 9.99555705,8.49107744 C9.99555705,8.49804301 10.0000035,8.50401351 10.0000035,8.51197416 C10.0000035,8.52292006 9.99333384,8.53287088 9.99333384,8.54481186 C9.98888742,8.59854628 9.97999458,8.55476268 9.95665088,8.6084971 C9.92886076,8.66621185 9.88773139,8.77069544 9.83882078,8.81447904 L7.52223644,10.8414608 C7.41218756,10.9399739 7.26656734,10.9917181 7.11983551,10.9917181 C6.97310368,10.9917181 6.82859506,11.0325165 6.71743458,10.9330083 C6.49400202,10.7320018 6.49400202,10.4095953 6.71743458,10.2095838 L8.05247191,8.97269706 L0.590269091,8.97269706 C0.263457289,8.97269706 -0.00110464626,8.79258724 3.46833212e-06,8.51097908 C-0.00110464626,8.22937091 0.263457289,8.03035454 0.589157487,8.03035454 L8.05136031,8.02935946 L6.71632298,6.92581368 C6.49289042,6.72580223 6.49289042,6.40240063 6.71632298,6.20338425 Z" id="形状结合"></path>
        </g>
    </g>
</svg>