<?xml version="1.0" encoding="UTF-8"?>
<svg width="16px" height="16px" viewBox="0 0 16 16" version="1.1" xmlns="http://www.w3.org/2000/svg" xmlns:xlink="http://www.w3.org/1999/xlink">
    <title>空白_blank28</title>
    <g id="数字卷宗" stroke="none" stroke-width="1" fill="none" fill-rule="evenodd">
        <g id="空白_blank28" fill="#4497F2" fill-rule="nonzero">
            <rect id="矩形" opacity="0" x="0" y="0" width="16" height="16"></rect>
            <path d="M1.6,11.6363594 L2.1818125,11.6363594 L2.1818125,9.45454688 L1.6,9.45454688 C1.6,9.45454688 0.727265625,9.45454688 0.727265625,10.5454531 C0.727265625,11.6363594 1.6,11.6363594 1.6,11.6363594 Z M1.6,5.09090625 L2.1818125,5.09090625 L2.1818125,2.90909375 L1.6,2.90909375 C1.6,2.90909375 0.727265625,2.90909375 0.727265625,4 C0.727265625,5.09090625 1.6,5.09090625 1.6,5.09090625 Z M1.6,8 L2.1818125,8 L2.1818125,5.8181875 L1.6,5.8181875 C1.6,5.8181875 0.727265625,5.8181875 0.727265625,6.90909375 C0.727265625,8 1.6,8 1.6,8 Z M1.6,14.5454688 L2.1818125,14.5454688 L2.1818125,12.363625 L1.6,12.363625 C1.6,12.363625 0.727265625,12.363625 0.727265625,13.4545313 C0.727265625,14.5454375 1.6,14.5454375 1.6,14.5454375 L1.6,14.5454688 Z M2.90909375,2.176 L2.90909375,15.2785469 C2.90909375,15.6770938 3.23564062,16 3.6421875,16 L13.0858125,16 C13.4901875,16 13.8181875,15.6690937 13.8181875,15.2785469 L13.8181875,2.176 C13.8181875,1.77745312 13.491625,1.45454687 13.0850938,1.45454687 L3.6421875,1.45454687 C3.23709375,1.45454687 2.90909375,1.78545312 2.90909375,2.176 Z M13.0909063,2.1818125 L13.0909063,15.2727344 L3.636375,15.2727344 L3.636375,2.1818125 L13.0909063,2.1818125 Z M15.2727344,14.5454687 L15.2727344,0 L4.36364062,0 L4.36364062,0.6821875 L14.608,0.6821875 L14.608,14.5454687 L15.2727344,14.5454687 Z" id="形状"></path>
        </g>
    </g>
</svg>