<?xml version="1.0" encoding="UTF-8"?>
<svg width="16px" height="16px" viewBox="0 0 16 16" version="1.1" xmlns="http://www.w3.org/2000/svg" xmlns:xlink="http://www.w3.org/1999/xlink">
    <title>纠偏</title>
    <g id="数字卷宗" stroke="none" stroke-width="1" fill="none" fill-rule="evenodd">
        <g id="纠偏" fill="#4497F2" fill-rule="nonzero">
            <rect id="矩形" opacity="0" x="0" y="0" width="16" height="16"></rect>
            <path d="M9.01407812,2.0845 C12.2816875,2.0845 14.9295781,4.73239062 14.9295781,8 C14.9295781,11.2676094 12.2816875,13.8591562 9.01407812,13.8591562 L9.01407812,12.6197187 C10.2535156,12.6197187 11.436625,12.1126875 12.2816875,11.2676094 C13.1830937,10.3662031 13.6337969,9.2394375 13.6337969,8 C13.6337969,6.7605625 13.1267656,5.57746875 12.2816875,4.73239062 C11.3802812,3.83098437 10.2535156,3.38028125 9.01407812,3.38028125 C7.77464062,3.38028125 6.59154687,3.8873125 5.74648437,4.73239062 C5.07042187,5.35210937 4.61971875,6.1971875 4.45070312,7.09859375 L6.92957812,7.09859375 L4,10.478875 L1.07042187,7.09859375 L3.21126562,7.09859375 C3.60564062,4.2816875 6.02817187,2.0845 9.01407812,2.0845 L9.01407812,2.0845 Z M11.5492969,7.09859375 L11.5492969,8.78873437 L8.16901562,8.78873437 L8.16901562,4.563375 L9.85915625,4.563375 L9.85915625,7.09859375 L11.5492969,7.09859375 Z" id="形状"></path>
        </g>
    </g>
</svg>