<?xml version="1.0" encoding="UTF-8"?>
<svg width="16px" height="16px" viewBox="0 0 16 16" version="1.1" xmlns="http://www.w3.org/2000/svg" xmlns:xlink="http://www.w3.org/1999/xlink">
    <title>调整分类</title>
    <g id="数字卷宗" stroke="none" stroke-width="1" fill="none" fill-rule="evenodd">
        <g id="调整分类" fill="#4497F2" fill-rule="nonzero">
            <rect id="矩形" opacity="0" x="0" y="0" width="16" height="16"></rect>
            <path d="M1.53125,1.546875 L10.0015625,1.546875 L10.0015625,2.328125 L1.53125,2.328125 L1.53125,1.546875 Z M1.53125,5.640625 L7.9828125,5.640625 L7.9828125,6.421875 L1.53125,6.421875 L1.53125,5.640625 Z M1.53125,9.625 L7.9828125,9.625 L7.9828125,10.40625 L1.53125,10.40625 L1.53125,9.625 Z M1.53125,13.671875 L10.0015625,13.671875 L10.0015625,14.453125 L1.53125,14.453125 L1.53125,13.671875 Z M12.2359375,3.6015625 L13.30625,6.221875 L11.165625,6.221875 L12.2359375,3.6015625 M12.2359375,1.534375 L10.003125,7.003125 L14.46875,7.003125 L12.2359375,1.534375 Z M13.3046875,9.78125 L12.2359375,12.390625 L11.1671875,9.78125 L13.3046875,9.78125 M14.46875,9 L10.0015625,9 L12.234375,14.4515625 L14.46875,9 Z" id="形状"></path>
        </g>
    </g>
</svg>